<?xml version="1.0" encoding="UTF-8"?>
<svg id="Layer_1" data-name="Layer 1" xmlns="http://www.w3.org/2000/svg" width=".15in" height=".1in" viewBox="0 0 10.71 6.96">
  <defs>
    <style>
      .cls-1 {
        fill: #f6e6dc;
      }
    </style>
  </defs>
  <path class="cls-1" d="M10.71,3.48s-.02-.05-.03-.07c-.01-.06-.02-.13-.07-.18L7.6,.11c-.14-.14-.37-.15-.51,0-.14,.14-.15,.37,0,.51l2.42,2.51H.36C.16,3.12,0,3.28,0,3.48s.16,.36,.36,.36H9.5l-2.42,2.51c-.14,.14-.13,.37,0,.51,.07,.07,.16,.1,.25,.1s.19-.04,.26-.11l3.01-3.12c.05-.05,.06-.12,.07-.18,0-.03,.03-.05,.03-.07Z"/>
</svg>