<?xml version="1.0" encoding="utf-8"?>
<!-- Generator: Adobe Illustrator 27.0.0, SVG Export Plug-In . SVG Version: 6.00 Build 0)  -->
<svg version="1.1" xmlns="http://www.w3.org/2000/svg" xmlns:xlink="http://www.w3.org/1999/xlink" x="0px" y="0px"
	 viewBox="0 0 20.4 13.3" style="enable-background:new 0 0 20.4 13.3;" xml:space="preserve">
<style type="text/css">
	.st0{fill:#D09776;}
	.st1{fill:#D1AF8B;}
	.st2{fill:#CF8058;}
	.st3{fill:#3D2926;}
	.st4{fill:#7B1837;}
	.st5{fill:#7F1839;}
	.st6{fill:#771C36;}
	.st7{fill:#9E5325;}
	.st8{fill:#B98731;}
	.st9{fill:#F6E6DC;}
	.st10{fill:#F8F7EE;}
	.st11{fill:#E2D6C7;}
	.st12{fill:#432B22;}
	.st13{fill:#050606;}
	.st14{fill:#D7CBCF;}
	.st15{opacity:0.74;fill:#B98731;}
	.st16{clip-path:url(#SVGID_00000075155149880978574100000009210804520635942784_);}
	.st17{clip-path:url(#SVGID_00000144307465834060514550000013302753854115066811_);}
	.st18{clip-path:url(#SVGID_00000096755993732887681650000007205488014837445311_);}
	.st19{clip-path:url(#SVGID_00000029747396916804363750000006756603916826184839_);fill:#422B22;}
	.st20{clip-path:url(#SVGID_00000029747396916804363750000006756603916826184839_);}
	.st21{clip-path:url(#SVGID_00000163787172602899480880000002154262832312113845_);}
	.st22{opacity:0.36;clip-path:url(#SVGID_00000066497573180127831820000011843624262338000784_);}
	.st23{fill:#E0B1C3;}
	.st24{opacity:0.6;fill:#2D2010;}
	.st25{fill:none;stroke:#7F1839;stroke-width:0.25;stroke-linecap:round;stroke-miterlimit:10;}
	.st26{opacity:0.11;clip-path:url(#SVGID_00000045586808782110059080000015842314789985967493_);}
	.st27{fill:#FDFEFE;}
	.st28{fill:#F1EAE1;}
	.st29{opacity:0.36;clip-path:url(#SVGID_00000122692418512362026680000008350463263351341732_);}
</style>
<g id="Layer_1">
	<path class="st5" d="M20.4,6.6c0-0.1,0-0.1-0.1-0.1c0-0.1,0-0.2-0.1-0.3l-5.7-5.9c-0.3-0.3-0.7-0.3-1,0c-0.3,0.3-0.3,0.7,0,1
		l4.6,4.8H0.7C0.3,5.9,0,6.2,0,6.6C0,7,0.3,7.3,0.7,7.3h17.4l-4.6,4.8c-0.3,0.3-0.3,0.7,0,1c0.1,0.1,0.3,0.2,0.5,0.2
		c0.2,0,0.4-0.1,0.5-0.2l5.7-5.9c0.1-0.1,0.1-0.2,0.1-0.3C20.4,6.7,20.4,6.7,20.4,6.6z"/>
</g>
<g id="Layer_2">
</g>
<g id="Layer_3">
</g>
<g id="Layer_4">
</g>
<g id="Layer_5">
</g>
</svg>
