<?xml version="1.0" encoding="UTF-8"?>
<svg id="Layer_1" data-name="Layer 1" xmlns="http://www.w3.org/2000/svg" width=".48in" height=".44in" xmlns:xlink="http://www.w3.org/1999/xlink" viewBox="0 0 34.72 31.78">
  <defs>
    <style>
      .cls-1 {
        fill: none;
      }

      .cls-2 {
        clip-path: url(#clippath);
      }

      .cls-3 {
        fill: #faf9ef;
      }
    </style>
    <clipPath id="clippath">
      <rect class="cls-1" x="-103.48" y="-204.61" width="394.82" height="105.49"/>
    </clipPath>
  </defs>
  <g class="cls-2">
    <image width="5184" height="3456" transform="translate(-103.6 -235.98) scale(.08)" xlink:href="../../images/pexels-valeria-boltneva-74510.jpg"/>
  </g>
  <g>
    <path class="cls-3" d="M17.36,31.78c-3.83,0-7.65,0-11.48,0-1.7,0-2.14-.44-2.14-2.12,0-4.25,.01-8.49,0-12.74,0-.88,.26-1.59,.93-2.18,3.89-3.39,7.77-6.79,11.66-10.18,.71-.62,1.36-.65,2.1-.02,1.73,1.45,3.42,2.95,5.13,4.44,2.11,1.84,4.21,3.7,6.34,5.53,.74,.64,1.14,1.37,1.13,2.38-.03,4.36,0,8.73,0,13.09,0,1.25-.49,1.76-1.75,1.76-3.97,0-7.94,0-11.9,0,0,.01,0,.03,0,.04Zm.06-25.87c-1.69,1.5-3.31,2.97-4.95,4.41-2.09,1.84-4.18,3.67-6.29,5.48-.44,.38-.6,.8-.59,1.35,.02,1.46,.01,2.92,0,4.38,0,2.57,0,5.14-.03,7.71,0,.53,.19,.72,.7,.69,.73-.04,1.46-.05,2.2-.04,6.63,.02,13.27,.05,19.9,.07,.28,0,.55,0,.79,0,.06-.12,.09-.16,.09-.21,0-4.32,.01-8.63-.01-12.95,0-.28-.21-.62-.43-.82-.88-.82-1.81-1.58-2.71-2.38-2.87-2.55-5.74-5.1-8.68-7.71Z"/>
    <path class="cls-3" d="M12.46,3.74c.86-.75,1.58-1.37,2.3-1.99,.48-.42,.95-.85,1.45-1.24,.82-.66,1.59-.68,2.37,0,2.3,1.98,4.58,3.99,6.87,5.99,2.13,1.86,4.27,3.71,6.4,5.56,.83,.73,1.67,1.45,2.49,2.19,.43,.39,.51,1.03,.15,1.39-.43,.42-.9,.35-1.33-.02-1.69-1.46-3.39-2.93-5.07-4.4-2.92-2.56-5.84-5.12-8.76-7.69-.63-.56-1.26-1.12-1.93-1.73-.89,.77-1.76,1.52-2.63,2.28C10.63,7.71,6.49,11.35,2.35,14.99c-.27,.23-.51,.49-.8,.69-.53,.36-1.11,.3-1.38-.12-.33-.51-.14-.95,.27-1.31,1.11-.98,2.2-2,3.36-2.92,.76-.6,1.06-1.25,1.03-2.22-.07-2.07-.03-4.15-.02-6.23,0-1.15,.32-1.46,1.48-1.46,1.56,0,3.12,0,4.67,0,1.32,0,1.5,.19,1.51,1.52,0,.19,0,.38,0,.79Zm-5.82,4.95c1.35-1.17,2.6-2.23,3.83-3.31,.11-.1,.22-.26,.22-.4,.03-.56,.01-1.12,.01-1.69H6.64v5.4Z"/>
    <path class="cls-3" d="M14.65,19.45c-1.11,0-1.98,0-2.85,0-.96,0-1.42-.45-1.39-1.45,.08-2.71,1.15-4.88,3.65-6.15,2.63-1.33,5.17-1.11,7.47,.73,1.76,1.41,2.57,3.32,2.52,5.58-.02,.82-.44,1.25-1.28,1.27-.92,.02-1.84,0-2.91,0,.21,.72,.35,1.35,.57,1.95,.47,1.34,.97,2.67,.35,4.1-.55,1.26-1.51,2.06-2.85,2.27-1.38,.22-2.63-.13-3.56-1.26-1.09-1.32-1.06-2.78-.53-4.32,.29-.85,.51-1.73,.8-2.74Zm7.96-1.47c.09-2.09-.8-3.69-2.49-4.77-1.95-1.24-3.99-1.16-5.9,.14-1.57,1.08-2.33,2.62-2.32,4.63h10.71Zm-6.4,1.47c-.17,.64-.31,1.21-.49,1.77-.18,.56-.43,1.1-.57,1.67-.12,.54-.26,1.13-.17,1.65,.24,1.32,1.55,2.12,2.81,1.84,1.4-.32,2.16-1.53,1.78-3.03-.33-1.31-.78-2.6-1.18-3.89h-2.19Z"/>
  </g>
</svg>