<?xml version="1.0" encoding="UTF-8"?>
<svg id="Layer_1" data-name="Layer 1" xmlns="http://www.w3.org/2000/svg" width=".42in" height=".44in" xmlns:xlink="http://www.w3.org/1999/xlink" viewBox="0 0 30.16 31.94">
  <defs>
    <style>
      .cls-1 {
        fill: none;
      }

      .cls-2 {
        clip-path: url(#clippath);
      }

      .cls-3 {
        fill: #faf9ef;
      }
    </style>
    <clipPath id="clippath">
      <rect class="cls-1" x="-215.07" y="-204.45" width="394.82" height="105.49"/>
    </clipPath>
  </defs>
  <g class="cls-2">
    <image width="5184" height="3456" transform="translate(-215.19 -235.82) scale(.08)" xlink:href="../../images/pexels-valeria-boltneva-74510.jpg"/>
  </g>
  <path class="cls-3" d="M6.01,20.33c-1.4,0-2.6,0-3.8,0-1.69,0-2.29-.78-2.2-2.48,.11-2.02,.69-3.87,1.93-5.44,.66-.84,1.58-1.48,2.36-2.24,.28-.27,.58-.59,.7-.95C6.75,4.04,10.37,1.01,15.72,.14c5.64-.92,11.57,2.72,13.59,8.08,.67,1.77,.83,3.6,.85,5.45,.01,1.24-.74,1.93-1.98,1.93-1.86,0-3.72,.03-5.58,.01-.52,0-.67,.13-.53,.64,.4,1.42,.76,2.85,1.15,4.28,.33,1.2,.76,2.38,.98,3.59,.68,3.62-2.4,7.47-6.07,7.76-1.7,.13-3.24-.17-4.68-1.08-.17-.11-.56-.04-.75,.09-2.72,1.88-6.25,1.13-7.85-1.75-.82-1.47-.68-3.02-.17-4.57,.45-1.38,.87-2.78,1.33-4.26Zm22.17-6.6c.54-5.2-2.96-10.8-9.43-11.73-5.6-.8-10.25,2.98-11.46,6.73,.82-.08,1.65-.25,2.47-.21,3.45,.16,6.12,1.69,7.95,4.65,.15,.24,.47,.53,.72,.53,3.24,.04,6.48,.02,9.76,.02Zm-11.03,4.59c-.06-5.5-4.62-8.58-8.88-7.83-3.85,.67-6.6,4.3-6.2,7.83h15.08Zm1.71-2.7c.06,1,.15,1.94,.17,2.87,.01,.85-.38,1.44-1.05,1.64-.29,.09-.6,.08-.91,.09-1.26,0-2.52,0-3.97,0,.3,1.03,.53,1.95,.84,2.84,.68,1.94,1.44,3.87,.4,5.92,.9,.75,1.92,1.04,3,1.02,3.43-.04,5.76-3.1,4.86-6.42-.44-1.63-1.05-3.22-1.51-4.85-.29-1.02-.44-2.07-.66-3.12h-1.17Zm-9.2,4.68c-.44,0-.88-.03-1.31,.02-.16,.02-.41,.18-.45,.32-.46,1.47-.86,2.96-1.32,4.44-.27,.86-.46,1.72-.2,2.62,.51,1.73,2.36,2.76,4.13,2.31,1.72-.43,2.89-2.37,2.41-4.14-.36-1.34-.88-2.63-1.24-3.97-.42-1.56-.38-1.57-2.02-1.59Z"/>
</svg>