<?xml version="1.0" encoding="UTF-8"?>
<svg id="Layer_1" data-name="Layer 1" xmlns="http://www.w3.org/2000/svg" width=".44in" height=".44in" xmlns:xlink="http://www.w3.org/1999/xlink" viewBox="0 0 31.99 31.97">
  <defs>
    <style>
      .cls-1 {
        fill: none;
      }

      .cls-2 {
        clip-path: url(#clippath);
      }

      .cls-3 {
        fill: #faf9ef;
      }
    </style>
    <clipPath id="clippath">
      <rect class="cls-1" x="-160.89" y="-204.42" width="394.82" height="105.49"/>
    </clipPath>
  </defs>
  <g class="cls-2">
    <image width="5184" height="3456" transform="translate(-161.01 -235.79) scale(.08)" xlink:href="../../images/pexels-valeria-boltneva-74510.jpg"/>
  </g>
  <g>
    <path class="cls-3" d="M27.54,4.93C24.56,1.82,20.58,.07,16.31,0c-.09,0-.18,0-.27,0C7.3,0,.11,7.12,0,15.88c-.1,8.74,7.03,15.96,15.91,16.09h.01c8.78,0,15.83-6.84,16.06-15.56,.11-4.29-1.46-8.37-4.45-11.48ZM8.1,9.51l1.38-1.28-2.85-2.74,.34-.28c2.56-2.15,5.8-3.34,9.11-3.34,3.59,0,7.06,1.41,9.76,3.97,5.3,5.03,5.74,13.59,.98,19.08l-.29,.33-2.69-2.87-1.33,1.36,2.79,2.77-.32,.28c-2.44,2.11-5.63,3.28-8.97,3.28-3.67,0-7.16-1.43-9.8-4.01C.87,20.85,.43,12.66,5.17,7l.29-.35,2.64,2.86Z"/>
    <path class="cls-3" d="M13.5,18.45c.65,.65,1.55,1.02,2.54,1.02h.01c1.95,0,3.42-1.51,3.43-3.5,0-1.97-1.49-3.46-3.47-3.47-1.98,0-3.48,1.51-3.49,3.5,0,.94,.35,1.81,.99,2.45Z"/>
    <path class="cls-3" d="M8.69,16.99c.29,.02,.59,.02,.88,.02,.38,0,.75-.01,1.11-.04,.29-.02,.54-.15,.69-.36,.14-.18,.18-.41,.14-.63-.08-.38-.49-.76-.81-.96l-.07-.04c-.1-.05-.22-.07-.41-.07-.27,0-.54-.03-.81-.02-.38,0-.76,.08-1.12,.2-.37,.13-.55,.51-.53,.88,.03,.6,.37,.97,.93,1.01Z"/>
    <path class="cls-3" d="M12.13,18.84s-.06,0-.06,0c-.27,.03-.53,.19-.74,.35-.29,.2-.56,.45-.8,.71-.4,.44-.88,1.09-.57,1.71,.14,.28,.42,.48,.73,.52,.2,.03,.41-.01,.59-.11,.09-.05,.17-.11,.24-.19s.16-.14,.25-.21c.36-.3,.7-.63,1-1,.07-.09,.14-.18,.21-.27,.21-.29,.25-.66,.09-.97-.17-.34-.52-.55-.92-.55Z"/>
    <path class="cls-3" d="M11.55,12.91l.05,.03c.13,.07,.32,.12,.52,.12,.17,0,.33-.03,.44-.08l.09-.05c.16-.09,.25-.27,.37-.39,.13-.14,.1-.37,.06-.54-.06-.26-.17-.56-.34-.75-.29-.32-.59-.6-.92-.9l-.19-.17c-.44-.41-.95-.43-1.38-.08-.48,.39-.54,.95-.15,1.43,.44,.54,.94,1.02,1.44,1.39Z"/>
    <path class="cls-3" d="M14.97,9.66c0,.1,0,.19,.01,.29,.01,.22,0,.45,.01,.67,.04,.51,.39,.88,.83,.88,.04,0,.08,0,.13,0,.31-.05,.8-.36,.95-.67l.04-.12c.14-.66,.14-1.42,0-2.12l-.04-.12c-.06-.17-.25-.35-.41-.44-.18-.1-.39-.14-.59-.09-.28,.06-.52,.25-.67,.5s-.23,.52-.25,.81c-.01,.15-.02,.29-.01,.44Z"/>
    <path class="cls-3" d="M21.29,15.05c-.2,.06-.33,.2-.47,.33s-.25,.25-.26,.46c-.01,.2,.05,.39,.14,.57,.06,.12,.13,.23,.23,.3,.09,.06,.19,.09,.29,.11,.24,.06,.48,.1,.72,.13,.28,.03,.56,.02,.83,.04,.17,.01,.33,0,.49-.05s.27-.11,.4-.21c.24-.2,.47-.46,.54-.78,.05-.28-.04-.48-.14-.6-.16-.21-.42-.34-.72-.36h-.17c-.3-.03-.61-.05-.92-.05-.35,0-.65,.03-.91,.08,0,0-.05,.01-.05,.01Z"/>
    <path class="cls-3" d="M16.99,21.41c-.04-.6-.41-.95-.99-.96-.58,0-.95,.36-.98,.94-.04,.74-.03,1.35,0,1.92,.04,.54,.41,.87,.97,.88h.02c.54,0,.9-.32,.97-.86,.03-.23,.02-.46,.02-.69v-.03h0c0-.08,0-.17,0-.25l.02-.58c0-.13,0-.26-.01-.38Zm-.99,2.2h0s0,0,0,0Z"/>
    <path class="cls-3" d="M20.55,19.15c-.11-.07-.24-.13-.36-.18-.2-.08-.42-.12-.63-.08-.39,.07-.68,.41-.7,.81-.01,.23,.08,.38,.17,.58,.03,.08,.04,.14,.09,.22,.06,.09,.13,.18,.2,.26,.28,.34,.62,.63,.95,.93l.15,.13c.22,.2,.47,.3,.71,.3,.16,0,.41-.05,.66-.29,.43-.41,.44-.95,.01-1.44-.24-.28-.5-.55-.77-.8-.07-.07-.15-.14-.22-.21-.05-.05-.09-.11-.15-.15-.04-.03-.08-.06-.13-.08Z"/>
    <path class="cls-3" d="M19.84,13.09c.14,0,.29,0,.42-.06,.23-.09,.42-.26,.6-.43,.23-.22,.45-.45,.66-.69,.15-.17,.29-.35,.4-.55,.18-.37,.15-.8-.12-1.13l-.06-.08-.09-.05c-.14-.08-.35-.13-.57-.13-.15,0-.27,.02-.33,.04l-.1,.03-.09,.06c-.53,.36-1.04,.86-1.49,1.44-.23,.3-.27,.67-.12,.99,.16,.33,.52,.54,.89,.57Z"/>
  </g>
</svg>