<?xml version="1.0" encoding="UTF-8"?><svg id="Layer_1" xmlns="http://www.w3.org/2000/svg" viewBox="0 0 106.98 44.34"><defs><style>.cls-1{fill:#7f1839;}.cls-2{fill:#e2d6c7;}</style></defs><rect class="cls-2" width="106.98" height="44.34"/><g><path class="cls-1" d="M20.09,14.71h-.35c-.34-1.1-.88-1.94-1.83-1.94h-1.53v3.19h.19c.95,0,1.56,0,1.65-1.38h.31v3.19h-.31c-.09-1.38-.7-1.38-1.65-1.38h-.19v2.07c0,.84,.41,1.27,1.25,1.27v.3h-4.15v-.3c.84,0,1.03-.57,1.03-1.27v-4.57c0-.69-.2-1.27-1.03-1.27v-.31h6.42l.18,2.38Z"/><path class="cls-1" d="M23.91,19.74v.3h-3.63v-.3c.84,0,.95-.57,.95-1.27v-1.11c0-.69-.11-1.27-.95-1.27v-.3c.64,0,1.76-.26,2.42-.86h.3v3.53c0,.69,.07,1.27,.91,1.27Zm-3.08-6.36c0-.57,.5-1.05,1.1-1.05s1.1,.47,1.1,1.05-.5,1.04-1.1,1.04-1.1-.47-1.1-1.04Z"/><path class="cls-1" d="M31.88,19.74v.3h-3.53v-.3c.84,0,.85-.59,.77-1.27,0,0-.15-1-.22-1.41-.1-.65-.18-1.24-.94-1.24-.66,0-.93,.58-.93,1.32v1.33c0,.69,.07,1.27,.9,1.27v.3h-3.62v-.3c.84,0,.95-.57,.95-1.27v-1.11c0-.69-.11-1.27-.95-1.27v-.3c.64,0,1.76-.27,2.42-.86h.3v.86c.33-.46,.86-.86,1.75-.86,1.11,0,1.71,.59,1.9,1.98,.15,1.1,.21,1.55,.21,1.55,.09,.65,.15,1.27,.99,1.27Z"/><path class="cls-1" d="M38.56,19.32c-.26,.56-.65,.81-1.27,.81-.57,0-.99-.15-1.22-.52-.35,.31-.83,.52-1.36,.52-1.66,0-2.86-1.05-2.86-2.6s1.19-2.83,2.86-2.6c.48,.07,.88,.29,1.17,.57v-.75c0-.69-.11-1.27-.95-1.27v-.31c.64,0,1.76-.26,2.43-.86h.3v6.13c0,.53,.01,.91,.28,.98,.19,.04,.33-.04,.44-.23l.19,.11Zm-2.81-1.97c-.23-1.31-.76-2.09-1.43-1.98-.66,.12-.89,1.03-.66,2.35,.23,1.31,.76,2.09,1.43,1.98,.66-.12,.89-1.03,.66-2.35Z"/><path class="cls-1" d="M42.6,19.74v.3h-3.63v-.3c.84,0,.95-.57,.95-1.27v-1.11c0-.69-.11-1.27-.95-1.27v-.3c.64,0,1.76-.26,2.42-.86h.3v3.53c0,.69,.07,1.27,.91,1.27Zm-3.08-6.36c0-.57,.5-1.05,1.1-1.05s1.1,.47,1.1,1.05-.5,1.04-1.1,1.04-1.1-.47-1.1-1.04Z"/><path class="cls-1" d="M50.57,19.74v.3h-3.53v-.3c.84,0,.85-.59,.77-1.27,0,0-.15-1-.22-1.41-.1-.65-.18-1.24-.94-1.24-.66,0-.93,.58-.93,1.32v1.33c0,.69,.07,1.27,.9,1.27v.3h-3.62v-.3c.84,0,.95-.57,.95-1.27v-1.11c0-.69-.11-1.27-.95-1.27v-.3c.64,0,1.76-.27,2.42-.86h.3v.86c.33-.46,.86-.86,1.75-.86,1.11,0,1.71,.59,1.9,1.98,.15,1.1,.21,1.55,.21,1.55,.09,.65,.15,1.27,.99,1.27Z"/><path class="cls-1" d="M56.57,20.93c-.09,1.42-1.84,1.91-2.97,1.91s-2.62-.21-2.62-1.17c0-.45,.35-.68,.77-.83-.45-.2-.79-.59-.69-1.17,.12-.64,.68-.91,1.09-1.06-.55-.36-.89-.94-.89-1.64,0-1.22,1.01-2.05,2.42-2.05,.32,0,.6,.04,.88,.12,.05-.68,.31-1.27,1.02-1.35,.62-.07,1.01,.35,.98,.87-.03,.53-.5,.77-.79,.76-.02-.31-.13-.65-.48-.65-.32-.01-.45,.2-.43,.47,.76,.33,1.24,.98,1.24,1.83,0,1.23-1.01,2.06-2.42,2.06-.42,0-.81-.08-1.14-.22-.13,.1-.25,.23-.23,.41,.02,.4,1.06,.37,1.54,.37,.93,0,2.83-.25,2.73,1.32Zm-1.45,.57c0-.23-.14-.36-.47-.36-.3,0-1.46-.06-2.16-.11-.13,.12-.22,.29-.24,.52-.03,.55,.48,.96,1.6,.94,1.09-.03,1.28-.58,1.28-.98Zm-2.29-4.37c.2,1.04,.63,1.53,1.17,1.44,.54-.09,.72-.68,.53-1.73-.2-1.03-.66-1.51-1.17-1.43-.52,.08-.71,.68-.53,1.72Z"/><path class="cls-1" d="M63,18.93c-.29,.68-.71,1.21-1.53,1.21-.88,0-1.59-.58-1.59-1.76v-2.89h-.86v-.43c1.09-.05,2.07-.67,2.3-1.86h.34v1.86h1.17v.43h-1.17v2.98c0,.52,.19,.66,.45,.72,.29,.04,.52-.09,.68-.36l.21,.11Z"/><path class="cls-1" d="M70.87,19.74v.3h-3.53v-.3c.84,0,.85-.58,.77-1.27,0,0-.15-1-.22-1.41-.1-.65-.18-1.23-.93-1.23-.66,0-.94,.58-.94,1.31v1.33c0,.69,.07,1.27,.9,1.27v.3h-3.62v-.3c.84,0,.95-.57,.95-1.27v-3.71c0-.69-.11-1.27-.95-1.27v-.31c.64,0,1.76-.26,2.42-.86h.3v3.47c.33-.46,.87-.86,1.75-.86,1.11,0,1.71,.59,1.9,1.98,.15,1.1,.21,1.55,.21,1.55,.09,.65,.15,1.27,.99,1.27Z"/><path class="cls-1" d="M76.24,18.46c-.36,.83-1.16,1.67-2.51,1.67-1.66,0-2.76-1.07-2.87-2.39-.15-1.77,1.18-2.81,2.83-2.81,1.47,0,2.46,.79,2.41,2.24l-3.4,.57c.26,1.42,2.39,1.6,3.36,.55,0,0,.19,.14,.19,.15Zm-3.61-1.13l1.8-.31c.05-1.06-.19-1.75-.95-1.68-.69,.07-.99,.95-.86,1.99Z"/><path class="cls-1" d="M20.02,30.54c0,1.55-1.09,2.84-2.76,2.6-.55-.08-.96-.34-1.26-.67v1.61c0,.69,.29,1.27,1.12,1.27v.31h-3.84v-.31c.84,0,.95-.57,.95-1.27v-3.71c0-.69-.11-1.27-.95-1.27v-.3c.64,0,1.76-.27,2.42-.86h.3v.57c.29-.29,.68-.51,1.17-.57,1.67-.23,2.86,1.04,2.86,2.6Zm-1.82-.14c-.23-1.32-.75-2.1-1.42-1.98s-.9,1.03-.67,2.35c.24,1.31,.76,2.09,1.43,1.98,.67-.12,.89-1.03,.66-2.35Z"/><path class="cls-1" d="M25.93,31.46c-.36,.83-1.16,1.67-2.51,1.67-1.66,0-2.76-1.07-2.87-2.39-.15-1.77,1.18-2.81,2.83-2.81,1.47,0,2.46,.79,2.41,2.24l-3.4,.57c.26,1.42,2.39,1.6,3.36,.55,0,0,.19,.14,.19,.15Zm-3.61-1.13l1.8-.31c.05-1.06-.19-1.75-.95-1.68-.69,.07-.99,.95-.86,1.99Z"/><path class="cls-1" d="M31.62,29.43c-.26,.64-.94,.74-1.3,.6,.11-.39,.11-.86-.32-1-.5-.15-.89,.12-.94,.62v1.83c0,.69,.07,1.27,.9,1.27v.3h-3.63v-.3c.85,0,.95-.57,.95-1.27v-1.11c0-.69-.1-1.27-.95-1.27v-.3c.65,0,1.76-.27,2.43-.86h.3v.99c.35-.67,.88-1.12,1.69-.99,.79,.13,1.1,.86,.86,1.49Z"/><path class="cls-1" d="M34.93,25.63c-.56,0-.73,.56-.51,1.17,.14,.42,.26,.77,.3,1.24h1.55v.44h-1.54v2.98c0,.69,.28,1.27,1.12,1.27v.31h-3.85v-.31c.84,0,.95-.57,.95-1.27v-2.98h-.91v-.44h.91v-.06c0-1.57,.43-2.75,2.05-2.75,.96,0,1.84,.37,1.75,1.16-.09,.69-.91,.66-1.34,.51,.14-.32,.29-1.27-.47-1.27Z"/><path class="cls-1" d="M41.54,31.46c-.36,.83-1.16,1.67-2.51,1.67-1.66,0-2.76-1.07-2.87-2.39-.15-1.77,1.18-2.81,2.83-2.81,1.47,0,2.46,.79,2.41,2.24l-3.4,.57c.26,1.42,2.39,1.6,3.36,.55,0,0,.19,.14,.19,.15Zm-3.61-1.13l1.8-.31c.05-1.06-.19-1.75-.95-1.68-.69,.07-.99,.95-.86,1.99Z"/><path class="cls-1" d="M47.46,31.46c-.36,.83-1.16,1.67-2.51,1.67-1.65,0-2.76-1.02-2.87-2.34-.15-1.77,1.18-2.85,2.83-2.85s2.16,.66,2.24,1.29c.07,.43-.08,.89-.47,1.08-.41,.2-.98,.07-1.39-.5,.58-.47,.37-1.55-.57-1.47-.57,.06-.98,.69-.94,1.69,.07,1.25,.7,1.84,1.68,1.94,.74,.08,1.36-.18,1.81-.66,0,0,.18,.14,.18,.15Z"/><path class="cls-1" d="M51.63,31.93c-.29,.68-.71,1.21-1.53,1.21-.88,0-1.59-.58-1.59-1.76v-2.89h-.86v-.43c1.09-.05,2.07-.67,2.3-1.86h.34v1.86h1.17v.43h-1.17v2.98c0,.52,.19,.66,.45,.72,.29,.04,.52-.09,.68-.36l.21,.11Z"/><path class="cls-1" d="M59.96,28.05v.3c-.55,0-.78,.27-.96,.71l-1.6,3.97h-.74l-1.79-3.97c-.22-.45-.36-.71-.91-.71v-.3h3.22v.3c-.5,0-.64,.18-.44,.71l.96,2.24,.9-2.24c.24-.6,0-.71-.58-.71v-.3h1.94Z"/><path class="cls-1" d="M66.04,32.71c-.2,.23-.54,.43-1.16,.43s-1.29-.2-1.45-.73c-.39,.59-1,.73-1.55,.73-.91,0-1.77-.3-1.92-1.1-.15-.8,.25-1.55,1.55-1.82,1.03-.21,1.67,.01,1.55-.75-.1-.56-.3-1.14-.85-1.14-.69-.06-1.01,.63-.58,.98-.26,.47-.71,.51-1.02,.36-.29-.14-.41-.45-.25-.84,.26-.71,1.22-.89,1.85-.89,1.76,0,2.49,.58,2.68,1.97,.15,1.11,.21,1.55,.21,1.55,.07,.39,.13,.83,.24,.97,.12,.14,.36,.15,.62,.03,.04,.12,.06,.13,.09,.24Zm-2.74-1.38c-.03-.4-.08-.8-.12-1.08-.09,.18-.21,.23-.77,.38-.47,.14-.8,.55-.73,1.11,.08,.51,.57,.81,.98,.7,.53-.12,.67-.59,.64-1.12Z"/><path class="cls-1" d="M71.73,29.43c-.26,.64-.94,.74-1.3,.6,.11-.39,.11-.86-.32-1-.5-.15-.89,.12-.94,.62v1.83c0,.69,.07,1.27,.9,1.27v.3h-3.63v-.3c.85,0,.95-.57,.95-1.27v-1.11c0-.69-.1-1.27-.95-1.27v-.3c.65,0,1.76-.27,2.43-.86h.3v.99c.35-.67,.88-1.12,1.69-.99,.79,.13,1.1,.86,.86,1.49Z"/><path class="cls-1" d="M75.96,32.74v.3h-3.63v-.3c.84,0,.95-.57,.95-1.27v-1.11c0-.69-.11-1.27-.95-1.27v-.3c.64,0,1.76-.26,2.42-.86h.3v3.53c0,.69,.07,1.27,.91,1.27Zm-3.08-6.36c0-.57,.5-1.05,1.1-1.05s1.1,.47,1.1,1.05-.49,1.04-1.1,1.04-1.1-.47-1.1-1.04Z"/><path class="cls-1" d="M81.55,31.46c-.36,.83-1.16,1.67-2.51,1.67-1.66,0-2.76-1.07-2.87-2.39-.15-1.77,1.18-2.81,2.83-2.81,1.47,0,2.46,.79,2.41,2.24l-3.4,.57c.26,1.42,2.39,1.6,3.36,.55,0,0,.19,.14,.19,.15Zm-3.61-1.13l1.8-.31c.05-1.06-.19-1.75-.95-1.68-.69,.07-.99,.95-.86,1.99Z"/><path class="cls-1" d="M85.72,31.93c-.29,.68-.71,1.21-1.53,1.21-.88,0-1.59-.58-1.59-1.76v-2.89h-.86v-.43c1.09-.05,2.07-.67,2.3-1.86h.34v1.86h1.17v.43h-1.17v2.98c0,.52,.19,.66,.45,.72,.29,.04,.52-.09,.68-.36l.21,.11Z"/><path class="cls-1" d="M91.79,28.05v.3c-.55,0-.78,.27-.96,.71l-1.59,3.97c-.45,1.16-1.07,2.81-2.26,2.81-.38,0-.81-.16-.97-.56-.24-.65,.22-1.18,.57-1.34,.2,.35,.53,.52,.98,.48,.48-.06,.9-.41,1.27-1.29l-2.16-4.25c-.19-.34-.41-.54-.88-.54v-.3h3.21v.3c-.48,0-.62,.18-.4,.71l.98,2.11,.85-2.11c.24-.6-.01-.71-.58-.71v-.3h1.94Z"/></g></svg>