<?xml version="1.0" encoding="UTF-8"?><svg id="Layer_1" xmlns="http://www.w3.org/2000/svg" viewBox="0 0 13.98 14.35"><defs><style>.cls-1{fill:#e2d6c7;}</style></defs><path class="cls-1" d="M9.39,11.94c.07-.88-.08-1.74-.31-2.58-.21-.78-.4-1.56-.48-2.37-.03-.3-.05-.61,.04-.91,.08-.03,.16-.04,.23-.05,.35-.06,.71-.12,1.05-.23,.23-.08,.46-.17,.66-.31,.41-.29,.42-.68,.02-.98-.16-.13-.35-.21-.54-.28-.45-.16-.91-.24-1.37-.3-.62-.08-1.25-.11-1.88-.1-.4,0-.8,.01-1.2,.06-.53,.06-1.06,.13-1.57,.29-.3,.1-.59,.2-.82,.44-.22,.22-.22,.48-.02,.71,.1,.12,.22,.19,.36,.26,.48,.25,1,.34,1.53,.42,.27,.04,.27,.04,.28,.3,0,.04,0,.08,0,.12,.03,.65-.13,1.28-.27,1.9-.2,.92-.47,1.82-.56,2.76-.04,.47-.04,.94,.08,1.4,.2,.75,.63,1.32,1.35,1.65,.52,.23,1.05,.24,1.59,.11,.44-.11,.82-.31,1.13-.64,.45-.47,.63-1.06,.69-1.68Zm.06-7.18c.16-.15,.33-.19,.54-.1,.17,.08,.37,.13,.48,.32-.05,.11-.15,.16-.24,.21-.31,.17-.64,.24-.98,.31-.13,.03-.27,.07-.41,.06-.02-.03,0-.06,.01-.09,.16-.27,.36-.51,.6-.72Zm-5.94,.2c.15-.2,.38-.27,.59-.35,.03-.01,.08,0,.11,0,.45,.18,.77,.48,.98,.92-.58,.04-1.48-.28-1.69-.58Zm3.71,8.91c-.38,.06-.75,.01-1.1-.15-.61-.29-.94-.79-1.08-1.43-.1-.47-.08-.94-.02-1.41,.11-.9,.37-1.76,.56-2.64,.15-.68,.27-1.37,.22-2.07-.05-.64-.28-1.2-.82-1.6-.04-.03-.08-.07-.15-.12,.22-.07,.41-.08,.61-.11,.12-.02,.2,0,.27,.13,.1,.17,.19,.34,.24,.53,.06,.21,.16,.3,.29,.26,.14-.04,.18-.17,.12-.39-.05-.19-.14-.36-.23-.56h.59s.02,.12,.02,.18c0,.34,0,.68,0,1.01,0,.12,.02,.22,.14,.27,.18,.06,.31-.04,.31-.23,0-.34,0-.68,0-1.01,0-.08-.02-.16,.02-.24,.19-.03,.38,.02,.59,.03-.1,.23-.2,.44-.26,.66-.02,.1,0,.17,.07,.24,.06,.06,.14,.06,.22,.03,.06-.02,.11-.07,.13-.13,.02-.05,.03-.11,.04-.16,.04-.1,.07-.19,.11-.28,.17-.35,.21-.37,.59-.3,.12,.02,.24,.04,.38,.07-.02,.09-.08,.12-.13,.17-.6,.61-.88,1.34-.83,2.19,.05,.78,.19,1.54,.4,2.29,.18,.65,.34,1.3,.4,1.98,.05,.51,.03,1.02-.13,1.51-.26,.76-.8,1.19-1.59,1.32Z"/><path class="cls-1" d="M2.91,6.73c.62,.14,1.25,.19,1.89,.2,.03,0,.06,0,.1-.04v-.39c-.1-.01-.2-.03-.3-.03-.48,0-.95-.06-1.42-.16-.33-.07-.65-.15-.93-.37-.45-.36-.6-.85-.64-1.39-.04-.49,.1-.95,.3-1.38,.33-.7,.85-1.22,1.49-1.62,.87-.55,1.82-.9,2.84-1.05,.47-.07,.94-.08,1.41-.02,.87,.1,1.69,.39,2.46,.8,.76,.4,1.4,.93,1.83,1.68,.35,.6,.51,1.24,.36,1.94-.15,.73-.57,1.2-1.31,1.37-.47,.1-.94,.19-1.42,.19-.18,0-.36,.02-.53,.05,0,.14-.01,.27,.02,.41,.28,0,.54-.02,.81-.03,.44-.03,.87-.09,1.3-.2,.72-.19,1.21-.63,1.46-1.33,.27-.77,.2-1.52-.11-2.24-.3-.7-.78-1.27-1.4-1.71C10.03,.62,8.82,.13,7.46,.02c-.43-.03-.85-.03-1.27,.03-.96,.14-1.87,.45-2.71,.93-.82,.47-1.51,1.07-1.94,1.93-.33,.66-.48,1.36-.32,2.1,.2,.93,.76,1.51,1.69,1.72Z"/><path class="cls-1" d="M13.95,9.1c-.12-.87-.52-1.6-1.15-2.21-.13-.13-.27-.25-.43-.36-.07,.06-.13,.1-.18,.15-.05,.04-.13,.06-.15,.14,.03,.03,.07,.05,.1,.07,.72,.6,1.26,1.32,1.38,2.28,.05,.44-.01,.86-.28,1.23-.3,.42-.69,.55-1.17,.39-.28-.09-.56-.2-.83-.33-.12-.06-.26-.11-.36-.21,.16-.31,.62-.54,.93-.47,.06,.01,.12,.05,.15,.1,.05,.08,.1,.15,.11,.25,.02,.16,.14,.23,.29,.2,.11-.02,.18-.13,.15-.28-.01-.08-.04-.15-.07-.22-.07-.15-.17-.28-.29-.4-.82-.81-1.8-1.35-2.87-1.74-.04-.01-.09-.04-.13,0,.02,.35,.21,1.08,.31,1.19,.03-.21,0-.42-.04-.66,.7,.31,1.36,.64,1.98,1.12-.47,.11-.77,.37-.98,.74-.33,.56-.53,1.17-.61,1.81-.02,.16-.03,.31-.06,.47-.13,.64-.38,1.21-.88,1.65-.09,.08-.19,.17-.29,.25,.05,.02,.09,0,.12,0,.34-.13,.6-.36,.81-.65,.33-.47,.5-1.01,.65-1.55,.13-.47,.27-.95,.46-1.42,.25,.13,.49,.25,.74,.37,.3,.14,.6,.26,.94,.27,.34,0,.65-.05,.92-.27,.62-.5,.8-1.17,.7-1.92Z"/><path class="cls-1" d="M4.14,12.17c-.03-.21,0-.43-.05-.63-.1-.4-.22-.8-.41-1.17-.23-.47-.54-.85-1.07-.99-.02,0-.02-.02,0-.06,.56-.43,1.21-.77,1.89-1.07,.04,.13-.04,.23-.03,.34,0,.1,0,.21,0,.36,.13-.21,.32-1.03,.31-1.25-.05,0-.09,0-.14,.02-.95,.34-1.82,.83-2.59,1.49-.21,.18-.4,.38-.53,.62-.06,.12-.09,.23-.07,.36,.01,.09,.07,.14,.16,.15,.15,.02,.23-.04,.27-.22,.06-.25,.19-.36,.4-.34,.34,.03,.62,.16,.83,.46-.07,.07-.15,.11-.23,.15-.31,.17-.64,.29-.97,.4-.5,.17-.91,.02-1.2-.42-.3-.45-.32-.94-.21-1.45,.12-.61,.44-1.12,.85-1.57,.18-.2,.38-.37,.59-.55-.07-.05-.12-.09-.18-.13-.06-.04-.09-.11-.17-.12-.02,0-.03,.01-.04,.02C.73,7.23,.2,8.04,.03,9.09c-.1,.64,.02,1.22,.45,1.72,.35,.4,.79,.57,1.33,.49,.25-.04,.49-.12,.71-.23,.27-.13,.53-.27,.8-.4,.02,.05,.05,.08,.06,.13,.14,.41,.28,.81,.39,1.23,.08,.34,.19,.68,.33,1,.16,.39,.37,.74,.71,1.01,.15,.12,.31,.21,.55,.26-.73-.57-1.11-1.27-1.22-2.13Z"/><path class="cls-1" d="M8.16,11.37c-.04-.14-.2-.2-.32-.13-.1,.07-.12,.17-.09,.27,.04,.15,.05,.3,.03,.44-.02,.26-.1,.5-.38,.59-.04,.01-.08,.04-.12,.08-.06,.06-.08,.14-.05,.22,.03,.08,.09,.13,.18,.13,.06,0,.11,0,.16-.02,.27-.1,.46-.28,.55-.54,.07-.19,.11-.39,.09-.61,.01-.14,0-.29-.05-.44Z"/><path class="cls-1" d="M6.53,12.55c-.11,0-.21,.1-.21,.21,0,.13,.08,.23,.21,.23,.13,0,.22-.08,.23-.21,0-.12-.1-.23-.22-.22Z"/></svg>