<?xml version="1.0" encoding="utf-8"?>
<!-- Generator: Adobe Illustrator 27.0.0, SVG Export Plug-In . SVG Version: 6.00 Build 0)  -->
<svg version="1.1" xmlns="http://www.w3.org/2000/svg" xmlns:xlink="http://www.w3.org/1999/xlink" x="0px" y="0px"
	 viewBox="0 0 14 14.3" style="enable-background:new 0 0 14 14.3;" xml:space="preserve">
<style type="text/css">
	.st0{fill:#D09776;}
	.st1{fill:#D1AF8B;}
	.st2{fill:#CF8058;}
	.st3{fill:#3D2926;}
	.st4{fill:#7B1837;}
	.st5{fill:#7F1839;}
	.st6{fill:#771C36;}
	.st7{fill:#9E5324;}
	.st8{fill:#B98731;}
	.st9{fill:#F6E6DC;}
	.st10{fill:#F8F7EE;}
	.st11{fill:#E2D6C7;}
	.st12{fill:#422B22;}
	.st13{fill:#050606;}
	.st14{fill:#D7CBCF;}
	.st15{opacity:0.74;fill:#B98731;}
	.st16{clip-path:url(#SVGID_00000016032815589067745680000008577949700232140211_);}
	.st17{clip-path:url(#SVGID_00000092451920023472145710000017167033755752773291_);}
	.st18{clip-path:url(#SVGID_00000106134902130404525570000015120937355674492556_);}
	.st19{clip-path:url(#SVGID_00000114783512471454334700000010418916815185426350_);fill:#422B22;}
	.st20{clip-path:url(#SVGID_00000114783512471454334700000010418916815185426350_);}
	.st21{clip-path:url(#SVGID_00000097492839556830329010000016863111307731376785_);}
	.st22{opacity:0.36;clip-path:url(#SVGID_00000142142395023759230760000010470970711661169308_);}
	.st23{fill:#E0B1C3;}
	.st24{opacity:0.6;fill:#2D2010;}
	.st25{fill:none;stroke:#7F1839;stroke-width:0.25;stroke-linecap:round;stroke-miterlimit:10;}
	.st26{opacity:0.11;clip-path:url(#SVGID_00000062164488413249332480000017710079107495054265_);}
	.st27{fill:#FDFEFE;}
	.st28{fill:#F1EAE1;}
</style>
<g id="Layer_1">
	<g>
		<path class="st28" d="M9.4,11.9c0.1-0.9-0.1-1.7-0.3-2.6C8.9,8.6,8.7,7.8,8.6,7c0-0.3,0-0.6,0-0.9C8.7,6,8.8,6,8.9,6
			C9.2,6,9.6,5.9,9.9,5.8c0.2-0.1,0.5-0.2,0.7-0.3c0.4-0.3,0.4-0.7,0-1c-0.2-0.1-0.3-0.2-0.5-0.3C9.6,4.1,9.2,4,8.7,3.9
			C8.1,3.9,7.4,3.8,6.8,3.8c-0.4,0-0.8,0-1.2,0.1C5.1,4,4.6,4,4,4.2C3.7,4.3,3.5,4.4,3.2,4.6C3,4.9,3,5.1,3.2,5.3
			c0.1,0.1,0.2,0.2,0.4,0.3C4,5.9,4.6,5.9,5.1,6c0.3,0,0.3,0,0.3,0.3c0,0,0,0.1,0,0.1c0,0.7-0.1,1.3-0.3,1.9
			c-0.2,0.9-0.5,1.8-0.6,2.8c0,0.5,0,0.9,0.1,1.4c0.2,0.8,0.6,1.3,1.4,1.6c0.5,0.2,1,0.2,1.6,0.1c0.4-0.1,0.8-0.3,1.1-0.6
			C9.2,13.2,9.3,12.6,9.4,11.9z M9.4,4.8C9.6,4.6,9.8,4.6,10,4.7c0.2,0.1,0.4,0.1,0.5,0.3c0,0.1-0.1,0.2-0.2,0.2
			c-0.3,0.2-0.6,0.2-1,0.3C9.1,5.5,9,5.6,8.8,5.6c0,0,0-0.1,0-0.1C9,5.2,9.2,5,9.4,4.8z M3.5,5c0.1-0.2,0.4-0.3,0.6-0.3
			c0,0,0.1,0,0.1,0c0.4,0.2,0.8,0.5,1,0.9C4.6,5.6,3.7,5.3,3.5,5z M7.2,13.9c-0.4,0.1-0.8,0-1.1-0.2c-0.6-0.3-0.9-0.8-1.1-1.4
			c-0.1-0.5-0.1-0.9,0-1.4C5.1,10,5.4,9.1,5.6,8.2c0.2-0.7,0.3-1.4,0.2-2.1C5.8,5.5,5.5,5,5,4.6c0,0-0.1-0.1-0.1-0.1
			c0.2-0.1,0.4-0.1,0.6-0.1c0.1,0,0.2,0,0.3,0.1C5.8,4.6,5.9,4.8,6,5C6,5.2,6.1,5.3,6.3,5.3c0.1,0,0.2-0.2,0.1-0.4
			C6.3,4.7,6.2,4.5,6.1,4.3c0.2,0,0.4,0,0.6,0c0,0,0,0.1,0,0.2c0,0.3,0,0.7,0,1c0,0.1,0,0.2,0.1,0.3c0.2,0.1,0.3,0,0.3-0.2
			c0-0.3,0-0.7,0-1c0-0.1,0-0.2,0-0.2c0.2,0,0.4,0,0.6,0C7.7,4.5,7.6,4.7,7.6,5c0,0.1,0,0.2,0.1,0.2c0.1,0.1,0.1,0.1,0.2,0
			C7.9,5.2,8,5.2,8,5.1C8,5,8,5,8,4.9c0-0.1,0.1-0.2,0.1-0.3c0.2-0.3,0.2-0.4,0.6-0.3c0.1,0,0.2,0,0.4,0.1C9.1,4.5,9,4.5,9,4.6
			C8.4,5.2,8.1,5.9,8.2,6.8c0,0.8,0.2,1.5,0.4,2.3c0.2,0.7,0.3,1.3,0.4,2c0,0.5,0,1-0.1,1.5C8.6,13.3,8,13.7,7.2,13.9z"/>
		<path class="st28" d="M2.9,6.7c0.6,0.1,1.3,0.2,1.9,0.2c0,0,0.1,0,0.1,0c0-0.1,0-0.2,0-0.4c-0.1,0-0.2,0-0.3,0
			c-0.5,0-1-0.1-1.4-0.2C2.8,6.2,2.5,6.2,2.2,5.9C1.8,5.6,1.7,5.1,1.6,4.6c0-0.5,0.1-0.9,0.3-1.4C2.2,2.5,2.8,2,3.4,1.5
			c0.9-0.5,1.8-0.9,2.8-1c0.5-0.1,0.9-0.1,1.4,0c0.9,0.1,1.7,0.4,2.5,0.8c0.8,0.4,1.4,0.9,1.8,1.7c0.3,0.6,0.5,1.2,0.4,1.9
			c-0.2,0.7-0.6,1.2-1.3,1.4c-0.5,0.1-0.9,0.2-1.4,0.2c-0.2,0-0.4,0-0.5,0.1c0,0.1,0,0.3,0,0.4c0.3,0,0.5,0,0.8,0
			c0.4,0,0.9-0.1,1.3-0.2c0.7-0.2,1.2-0.6,1.5-1.3c0.3-0.8,0.2-1.5-0.1-2.2c-0.3-0.7-0.8-1.3-1.4-1.7C10,0.6,8.8,0.1,7.5,0
			C7,0,6.6,0,6.2,0.1C5.2,0.2,4.3,0.5,3.5,1C2.7,1.4,2,2.1,1.5,2.9C1.2,3.6,1.1,4.3,1.2,5C1.4,5.9,2,6.5,2.9,6.7z"/>
		<path class="st28" d="M14,9.1c-0.1-0.9-0.5-1.6-1.1-2.2c-0.1-0.1-0.3-0.3-0.4-0.4c-0.1,0.1-0.1,0.1-0.2,0.1
			c-0.1,0-0.1,0.1-0.2,0.1c0,0,0.1,0,0.1,0.1c0.7,0.6,1.3,1.3,1.4,2.3c0.1,0.4,0,0.9-0.3,1.2c-0.3,0.4-0.7,0.6-1.2,0.4
			c-0.3-0.1-0.6-0.2-0.8-0.3c-0.1-0.1-0.3-0.1-0.4-0.2c0.2-0.3,0.6-0.5,0.9-0.5c0.1,0,0.1,0,0.2,0.1c0.1,0.1,0.1,0.2,0.1,0.3
			c0,0.2,0.1,0.2,0.3,0.2c0.1,0,0.2-0.1,0.2-0.3c0-0.1,0-0.2-0.1-0.2c-0.1-0.1-0.2-0.3-0.3-0.4c-0.8-0.8-1.8-1.4-2.9-1.7
			c0,0-0.1,0-0.1,0c0,0.4,0.2,1.1,0.3,1.2c0-0.2,0-0.4,0-0.7c0.7,0.3,1.4,0.6,2,1.1c-0.5,0.1-0.8,0.4-1,0.7
			c-0.3,0.6-0.5,1.2-0.6,1.8c0,0.2,0,0.3-0.1,0.5C9.6,13,9.4,13.6,8.9,14c-0.1,0.1-0.2,0.2-0.3,0.3c0.1,0,0.1,0,0.1,0
			c0.3-0.1,0.6-0.4,0.8-0.7c0.3-0.5,0.5-1,0.7-1.6c0.1-0.5,0.3-0.9,0.5-1.4c0.3,0.1,0.5,0.3,0.7,0.4c0.3,0.1,0.6,0.3,0.9,0.3
			c0.3,0,0.7-0.1,0.9-0.3C13.9,10.5,14.1,9.9,14,9.1z"/>
		<path class="st28" d="M4.1,12.2c0-0.2,0-0.4-0.1-0.6c-0.1-0.4-0.2-0.8-0.4-1.2c-0.2-0.5-0.5-0.8-1.1-1c0,0,0,0,0-0.1
			c0.6-0.4,1.2-0.8,1.9-1.1c0,0.1,0,0.2,0,0.3c0,0.1,0,0.2,0,0.4c0.1-0.2,0.3-1,0.3-1.2c0,0-0.1,0-0.1,0C3.7,8,2.8,8.5,2.1,9.2
			C1.9,9.4,1.7,9.6,1.5,9.8c-0.1,0.1-0.1,0.2-0.1,0.4c0,0.1,0.1,0.1,0.2,0.1c0.1,0,0.2,0,0.3-0.2c0.1-0.2,0.2-0.4,0.4-0.3
			c0.3,0,0.6,0.2,0.8,0.5C3,10.3,3,10.3,2.9,10.4c-0.3,0.2-0.6,0.3-1,0.4c-0.5,0.2-0.9,0-1.2-0.4C0.4,9.9,0.4,9.4,0.5,8.9
			c0.1-0.6,0.4-1.1,0.9-1.6C1.5,7.2,1.7,7,1.9,6.8c-0.1,0-0.1-0.1-0.2-0.1c-0.1,0-0.1-0.1-0.2-0.1c0,0,0,0,0,0C0.7,7.2,0.2,8,0,9.1
			c-0.1,0.6,0,1.2,0.4,1.7c0.3,0.4,0.8,0.6,1.3,0.5c0.3,0,0.5-0.1,0.7-0.2c0.3-0.1,0.5-0.3,0.8-0.4c0,0,0.1,0.1,0.1,0.1
			c0.1,0.4,0.3,0.8,0.4,1.2c0.1,0.3,0.2,0.7,0.3,1c0.2,0.4,0.4,0.7,0.7,1c0.1,0.1,0.3,0.2,0.5,0.3C4.6,13.7,4.2,13,4.1,12.2z"/>
		<path class="st28" d="M8.2,11.4c0-0.1-0.2-0.2-0.3-0.1c-0.1,0.1-0.1,0.2-0.1,0.3c0,0.1,0,0.3,0,0.4c0,0.3-0.1,0.5-0.4,0.6
			c0,0-0.1,0-0.1,0.1c-0.1,0.1-0.1,0.1,0,0.2c0,0.1,0.1,0.1,0.2,0.1c0.1,0,0.1,0,0.2,0c0.3-0.1,0.5-0.3,0.5-0.5
			c0.1-0.2,0.1-0.4,0.1-0.6C8.2,11.7,8.2,11.5,8.2,11.4z"/>
		<path class="st28" d="M6.5,12.5c-0.1,0-0.2,0.1-0.2,0.2c0,0.1,0.1,0.2,0.2,0.2c0.1,0,0.2-0.1,0.2-0.2C6.8,12.7,6.6,12.5,6.5,12.5z
			"/>
	</g>
</g>
<g id="Layer_2">
</g>
<g id="Layer_3">
</g>
<g id="Layer_4">
</g>
<g id="Layer_5">
</g>
</svg>
