<?xml version="1.0" encoding="utf-8"?>
<!-- Generator: Adobe Illustrator 27.0.0, SVG Export Plug-In . SVG Version: 6.00 Build 0)  -->
<svg version="1.1" id="Layer_1" xmlns="http://www.w3.org/2000/svg" xmlns:xlink="http://www.w3.org/1999/xlink" x="0px" y="0px"
	 viewBox="0 0 5 5.6" style="enable-background:new 0 0 5 5.6;" xml:space="preserve">
<style type="text/css">
	.st0{fill:#7F1839;}
	.st1{fill:#D1AF8B;}
	.st2{clip-path:url(#SVGID_00000182501233062915554410000016786133464248006588_);}
	.st3{clip-path:url(#SVGID_00000163770511251761683880000014906327298112323717_);}
	.st4{clip-path:url(#SVGID_00000049202142717715071940000012184036618536107691_);}
	.st5{clip-path:url(#SVGID_00000057126775085547286350000002119801590309774476_);}
	.st6{clip-path:url(#SVGID_00000099621091577847869640000013126751700214520742_);}
	.st7{clip-path:url(#SVGID_00000145021823598967541840000003644692969965772684_);}
	.st8{clip-path:url(#SVGID_00000155141606381565225550000000833534957469319096_);}
	.st9{clip-path:url(#SVGID_00000000182956570897348160000010273564167615960705_);}
	.st10{clip-path:url(#SVGID_00000164486612217377177440000003894007281034606504_);}
	.st11{clip-path:url(#SVGID_00000026142860840266078670000002243417160411931833_);}
	.st12{clip-path:url(#SVGID_00000097489365842157855030000014222118616621257106_);}
	.st13{clip-path:url(#SVGID_00000121242783020702475090000010880955393002659215_);}
	.st14{clip-path:url(#SVGID_00000023968235170652291330000014893173665248112275_);}
	.st15{clip-path:url(#SVGID_00000006701220269164004870000014514051055754049952_);}
	.st16{clip-path:url(#SVGID_00000124857148596364796650000003445452161362903171_);}
	.st17{clip-path:url(#SVGID_00000016794543058899887610000005417136490173827231_);}
	.st18{fill:none;}
	.st19{clip-path:url(#SVGID_00000047782761345438089730000017619473064580061096_);}
	.st20{clip-path:url(#SVGID_00000181806429637678740990000008559113777891734920_);}
	.st21{clip-path:url(#SVGID_00000080206691508384608510000008433454619386058654_);}
	.st22{clip-path:url(#SVGID_00000077294442965063112930000009678604321279165315_);}
	.st23{clip-path:url(#SVGID_00000159433219629619147210000005157274234476172728_);}
	.st24{clip-path:url(#SVGID_00000093875857669522791010000011652906555646920335_);}
	.st25{clip-path:url(#SVGID_00000124153119261916315290000002287851559704995722_);}
	.st26{clip-path:url(#SVGID_00000035499445625775112110000014145056987604384149_);}
	.st27{clip-path:url(#SVGID_00000121993256726728770390000014513768041829424029_);}
	.st28{clip-path:url(#SVGID_00000003809789467765533360000007138372932740090759_);}
	.st29{clip-path:url(#SVGID_00000125588779108107094160000012719674903877357981_);}
	.st30{clip-path:url(#SVGID_00000170988841610757590920000009469770947624125871_);}
	.st31{clip-path:url(#SVGID_00000005987754903586431430000004615555885549784963_);}
	.st32{clip-path:url(#SVGID_00000136397330157667271610000002752088042997202326_);}
	.st33{clip-path:url(#SVGID_00000162335636814935839580000003726412218760457625_);}
	.st34{clip-path:url(#SVGID_00000078729712225731536510000009755580883604490909_);}
	.st35{opacity:0.29;clip-path:url(#SVGID_00000139282858858657303260000016188580630618025880_);}
	.st36{fill:#B98731;}
	.st37{fill:#F1EAE1;}
	.st38{fill:#BA8831;}
	.st39{fill:none;stroke:#7F1839;stroke-width:0.5;stroke-miterlimit:10;}
	.st40{opacity:0.3;}
	.st41{opacity:0.18;clip-path:url(#SVGID_00000005974820756228973230000012861118441524078519_);}
	.st42{opacity:0.18;clip-path:url(#SVGID_00000026856918020082484240000000370646722329363611_);}
</style>
<g>
	<defs>
		
			<rect id="SVGID_00000161608686505145623840000017216447847382570685_" x="-220.2" y="39.8" transform="matrix(-1 -1.224647e-16 1.224647e-16 -1 -45.529 149.4369)" width="394.8" height="69.8"/>
	</defs>
	<clipPath id="SVGID_00000083087315024315998520000006767926799645271742_">
		<use xlink:href="#SVGID_00000161608686505145623840000017216447847382570685_"  style="overflow:visible;"/>
	</clipPath>
	<g transform="matrix(1 0 0 1 0 0)" style="clip-path:url(#SVGID_00000083087315024315998520000006767926799645271742_);">
		
			<image style="overflow:visible;" width="3325" height="3006" xlink:href="../../images/alexandra-stam-2KEwLqW4zNg-unsplash.jpg"  transform="matrix(-0.1227 0 0 0.1228 183.0976 -206.1055)">
		</image>
	</g>
</g>
<g>
	<path class="st38" d="M2.5,5.6c-0.3,0-0.6,0-0.8-0.2c-0.2-0.2-0.1-0.5,0-0.7c0-0.1,0-0.1,0-0.2c0.1-0.4,0-0.9,0-1.3
		c-0.1,0-0.2,0-0.2,0C1.3,3.3,1.2,3.4,1,3.4c-0.3,0-0.6-0.1-0.8-0.3C0,2.8,0,2.5,0.1,2.1c0.2-0.8,0.8-1.7,1.6-2c1-0.4,2.4,0.1,3,1.1
		l0,0C4.9,1.5,5,1.8,5,2.2c0,0.3-0.1,0.6-0.2,0.7C4.5,3.2,4.1,3.2,3.8,3.1l-0.1,0c-0.2,0-0.4,0-0.5,0c0.2,0.5,0.4,1,0.6,1.5
		c0.1,0.2,0.1,0.5,0,0.7C3.6,5.6,3.2,5.6,3,5.6l-0.1,0C2.8,5.6,2.6,5.6,2.5,5.6z M1.8,3c0,0,0.1,0,0.1,0.1C2,3.1,2,3.2,2,3.2
		c0,0.5,0,1,0,1.4c0,0.1,0,0.1,0,0.2c0,0.1-0.1,0.3,0,0.4c0.2,0.2,0.7,0.1,1,0.1l0.1,0c0.2,0,0.4,0,0.5-0.1c0.1-0.1,0-0.3,0-0.5
		C3.3,4.1,3.1,3.6,2.8,3.1L2.8,3l0.1-0.1c0.3-0.1,0.5-0.1,0.8-0.1l0.1,0c0.3,0,0.6,0,0.7-0.2c0.1-0.1,0.2-0.4,0.2-0.5
		c0-0.3-0.1-0.6-0.3-0.8l0,0c-0.5-0.8-1.8-1.3-2.7-1C1.1,0.6,0.5,1.5,0.3,2.2C0.2,2.5,0.3,2.7,0.4,2.9C0.5,3,0.7,3.1,1,3.1
		c0.2,0,0.3,0,0.5-0.1C1.5,3,1.6,3,1.8,3C1.7,3,1.8,3,1.8,3z"/>
</g>
</svg>
