<?xml version="1.0" encoding="UTF-8"?>
<svg id="Layer_1" data-name="Layer 1" xmlns="http://www.w3.org/2000/svg" width="1.03in" height=".22in" viewBox="0 0 74.43 16.2">
  <defs>
    <style>
      .cls-1 {
        fill: #7f1839;
      }
    </style>
  </defs>
  <path class="cls-1" d="M34.93,6.62c.58-.08,1.13-.13,1.6-.16,2.32-.1,4.47,.03,6.72,.6,.68,.17,1.31,.45,1.93,.77,1.02,.53,1.33,1.19,1.17,2.33-.16,1.17-.48,2.01-1.3,2.86-.57,.6-1.47,1.02-2.2,1.28-2.52,.88-7.7,.96-10.56-.3-1.78-.78-2.8-2.8-2.77-4.48,.01-.58,.27-1.03,.74-1.36,.39-.26,.8-.49,1.24-.75-.43-1.12-.95-2.09-2.22-2.5-.87-.28-1.68-.72-2.51-1.1-.2-.09-.41-.18-.59-.3-.46-.31-.67-.75-.59-1.3,.07-.48,.46-.79,1.08-.9,.57-.1,1.12-.07,1.66,.19,1.2,.56,2.4,1.12,3.63,1.62,.99,.4,1.68,1.08,2.17,2.01,.25,.47,.52,.98,.8,1.5Zm10.72,2.85c0-.56-.89-1.03-1.52-1.28-1.33-.53-2.72-.74-4.14-.88-2.54-.24-5.04-.07-7.49,.63-.64,.18-1.26,.42-1.79,.84-.56,.45-.56,.84,0,1.31,.55,.45,1.21,.68,1.87,.87,2.74,.82,5.54,.81,8.35,.52,1.12-.12,2.24-.37,3.29-.84,.58-.25,1.43-.68,1.43-1.18Zm-15.06,1.55c.47,1.59,1.61,2.25,2.91,2.63,2.47,.73,6.31,.79,8.78,.05,.74-.2,1.41-.55,2.01-1.03,.51-.41,1.07-1,1.14-1.74-2.99,1.77-11.06,2.04-14.84,.09ZM26.36,2.34c-.18,.48,.33,.67,.69,.82,.99,.41,1.97,.83,2.95,1.25,.75,.32,1.34,.8,1.68,1.57,.19,.42,.45,.81,.67,1.2,.63-.16,1.18-.29,1.79-.44-.31-.56-.6-1.07-.9-1.59-.27-.47-.64-.86-1.14-1.09-1.4-.64-2.79-1.31-4.21-1.89-.5-.21-1.29-.46-1.53,.17Z"/>
  <g>
    <path class="cls-1" d="M12.49,1.61C9.63-.34,6.59-.5,3.52,1.01,1.51,2,.2,3.59,.01,5.94c-.06,.79,.09,1.5,.6,2.12,.52,.65,1.17,1.15,1.89,1.55,.61,.34,1.29,.5,1.92,.78,.03,.11,.06,.2,.07,.3,.07,.98,.05,1.95-.13,2.92-.26,1.38,.28,2.19,1.56,2.45,1.17,.24,2.33,.17,3.46-.23,1.32-.47,1.79-1.25,1.57-2.63-.03-.19-.1-.37-.12-.55-.1-.81-.24-1.62,.15-2.43,.2-.08,.41-.16,.61-.24,.94-.34,1.75-.88,2.43-1.6,.59-.63,1.09-1.35,1.04-2.26-.1-1.92-.97-3.44-2.56-4.52Zm-3.13,13.39c-1.09,.46-2.24,.63-3.41,.29-.73-.21-1.02-.59-.87-1.32,.21-1.09,.23-2.18,.17-3.45,1.61,.38,3.11,.19,4.64-.02,.2,.57,.02,1.14,.13,1.68,.12,.56,.2,1.11,.2,1.68,0,.6-.4,.94-.86,1.13Zm4.64-7.87c-.59,.99-1.46,1.66-2.51,2.08-1.33,.53-2.73,.76-4.22,.79-1.21-.06-2.46-.24-3.65-.69-.54-.2-1.04-.47-1.49-.81-1.34-1-1.65-2.12-1.11-3.73,.65-1.91,2.1-3.02,3.89-3.58,2.52-.8,4.99-.56,7.21,1.05,1.34,.97,2.04,2.29,2.16,3.92,.03,.35-.1,.67-.28,.98Z"/>
    <path class="cls-1" d="M5.71,1.65c-1.24,.36-2.27,1.05-3.13,2-.07,.08-.12,.18-.12,.3,0,.1,.08,.21,.17,.26,.01,0,.02,.01,.03,.02,.02,0,.04,.02,.06,.02,.04,.01,.08,.02,.12,.03,.1,0,.2-.03,.27-.1,.8-.83,1.77-1.39,2.82-1.84,.22-.09,.34-.28,.22-.53-.12-.13-.28-.19-.43-.15Z"/>
    <path class="cls-1" d="M2.52,4.39s-.04-.03-.06-.03c-.07-.02-.14-.02-.21,0-.06,.02-.14,.04-.19,.08-.05,.03-.09,.07-.13,.12-.04,.04-.07,.08-.1,.13-.03,.05-.06,.09-.08,.14-.03,.05-.05,.1-.07,.15-.02,.05-.05,.1-.07,.16-.02,.05-.05,.1-.07,.15-.15,.3,.05,.45,.34,.54,0,0,.02-.02,.02-.02,0,0,.01-.01,.02-.02,.01-.01,.03-.02,.04-.04,.03-.02,.05-.05,.08-.07,.05-.05,.1-.1,.15-.16,.05-.05,.09-.11,.13-.17,.04-.06,.07-.12,.11-.18,.03-.06,.06-.13,.08-.19,.02-.07,.04-.13,.05-.2,.01-.07,.02-.13,.03-.2,0-.06,0-.12-.03-.17,0,0-.01-.02-.02-.02Z"/>
  </g>
  <g>
    <path class="cls-1" d="M61.92,11.08c-.86-.45-1.49-1.12-2.08-1.86-.12-.15-.24-.29-.45-.31-.17,.04-.28,.13-.35,.34,.68,1.18,1.69,2,2.91,2.62,.38-.47,.4-.56-.03-.79Z"/>
    <path class="cls-1" d="M72.82,3.63c-.36-.26-.75-.46-1.16-.63-1.82-.72-3.7-1.06-5.45-.95-1.31-.01-2.41,.03-3.51,.15-1.34,.14-2.64,.46-3.75,1.2-1.88,1.24-2.31,2.08-1.89,3.92,.65,2.81,2.33,4.86,4.97,6.08,1.85,.85,3.78,.92,5.75,.59,3.35-.56,6.09-3.16,6.59-6.45,.25-1.62-.2-2.93-1.54-3.91Zm-13.15,.08c1.37-.64,2.81-.91,4.31-.95,1.36-.04,2.71-.14,4.07,0,1.34,.13,2.6,.5,3.81,1.04,.49,.22,.92,.55,1.32,1.03-.35,1.87-1.62,2.99-3.51,3.1-1.17,.07-2.34,0-3.46-.38-1.33-.44-2.7-.62-4.1-.62-.6,0-1.2-.09-1.8-.08-1.11,.01-2.02-.66-2.27-1.9,.41-.56,.98-.94,1.61-1.23Zm14.02,3.59c-.32,2.62-1.77,4.41-4.13,5.45-3.44,1.52-7.51,.92-10.06-1.97-.3-.35-.58-.71-.83-1.1-.24-.38-.44-.79-.6-1.21-.16-.42-.27-.87-.34-1.32-.05-.34-.1-.72-.03-1.06,.02,.03,.04,.05,.06,.07,.01,.01,.03,.03,.04,.04,.04,.04,.07,.09,.11,.13,.07,.08,.15,.16,.23,.23,.15,.14,.32,.27,.49,.39,.34,.22,.71,.38,1.1,.48,.41,.1,.84,.13,1.26,.12,.04,0,.07,0,.11,0,1.81-.1,3.58,.16,5.32,.71,1.02,.32,2.08,.46,3.18,.34,1.74-.19,3.11-.92,4-2.51,.25,.43,.15,.82,.1,1.23Z"/>
    <path class="cls-1" d="M59.94,6.31c.26,.07,.49,.04,.74,.04,.31,.01,.62,.03,.93,.04,.93,.04,1.86,.04,2.79,.17,.76,.11,1.52,.27,2.26,.46,.06,.02,.12,.03,.18,.05,.79,.21,1.61,.26,2.42,.15,.41-.06,.81-.16,1.2-.3,.19-.07,.41-.14,.59-.24,.18-.1,.39-.24,.55-.38,.06-.05,.13-.11,.15-.19,.02-.08,0-.16-.04-.23s-.11-.12-.17-.17c-.27-.19-.58-.31-.9-.36-.26-.04-.38-.21-.49-.43-.46-.92-1.58-1.44-2.7-.53-.26,.21-.51,.36-.9,.22-.43-.67-1.03-1.17-1.89-1.16-.83,0-1.48,.46-1.96,1.08-.01,.01-.19-.03-.22-.03-.07,0-.14-.02-.21-.03-.13-.01-.26-.02-.39-.03-.22,0-.44,0-.66,.05-.4,.09-.74,.31-1.01,.61-.12,.14-.23,.28-.33,.44-.08,.12-.16,.23-.2,.37-.02,.06-.03,.13-.02,.19,.02,.12,.18,.17,.28,.2Zm10.92-.26c-.52,.39-1.28,.64-1.93,.52-.01,0-.03,0-.04,0,.26-.34,.54-.57,.97-.66,.34-.07,.7-.02,1.01,.14Zm-1.1-.69c-.24,.13-.55,.07-.8,.3-.36-.36-.63-.69-1.05-.9,.87-.49,1.19-.38,1.84,.6Zm-1.26,.64c-.03,.27-.16,.4-.31,.59-.84,.06-1.64-.27-2.47-.42,.57-1.21,1.85-1.29,2.78-.16Zm-2.47-1.13c-.31,.36-.73,.66-.94,1.13-.43-.07-.82-.14-1.3-.22-.22-.3-.42-.57-.61-.84,.79-1.21,1.9-1.24,2.85-.07Zm-2.92,.84c-1,.08-1.82,.16-2.68,.07,.74-1.08,1.49-1.13,2.68-.07Z"/>
  </g>
</svg>