<?xml version="1.0" encoding="UTF-8"?>
<svg id="Layer_1" data-name="Layer 1" xmlns="http://www.w3.org/2000/svg" width="1.66in" height=".24in" viewBox="0 0 119.51 17.01">
  <defs>
    <style>
      .cls-1 {
        fill: #7f1839;
      }
    </style>
  </defs>
  <g>
    <path class="cls-1" d="M56.14,11.48c-.86-.45-1.49-1.12-2.08-1.86-.12-.15-.24-.29-.45-.31-.17,.04-.28,.13-.35,.34,.68,1.18,1.69,2,2.91,2.62,.38-.47,.4-.56-.03-.79Z"/>
    <path class="cls-1" d="M67.04,4.03c-.36-.26-.75-.46-1.16-.63-1.82-.72-3.7-1.06-5.45-.95-1.31-.01-2.41,.03-3.51,.15-1.34,.14-2.64,.46-3.75,1.2-1.88,1.24-2.31,2.08-1.89,3.92,.65,2.81,2.33,4.86,4.97,6.08,1.85,.85,3.78,.92,5.75,.59,3.35-.56,6.09-3.16,6.59-6.45,.25-1.62-.2-2.93-1.54-3.91Zm-13.15,.08c1.37-.64,2.81-.91,4.31-.95,1.36-.04,2.71-.14,4.07,0,1.34,.13,2.6,.5,3.81,1.04,.49,.22,.92,.55,1.32,1.03-.35,1.87-1.62,2.99-3.51,3.1-1.17,.07-2.34,0-3.46-.38-1.33-.44-2.7-.62-4.1-.62-.6,0-1.2-.09-1.8-.08-1.11,.01-2.02-.66-2.27-1.9,.41-.56,.98-.94,1.61-1.23Zm14.02,3.59c-.32,2.62-1.77,4.41-4.13,5.45-3.44,1.52-7.51,.92-10.06-1.97-.3-.35-.58-.71-.83-1.1-.24-.38-.44-.79-.6-1.21-.16-.42-.27-.87-.34-1.32-.05-.34-.1-.72-.03-1.06,.02,.03,.04,.05,.06,.07,.01,.01,.03,.03,.04,.04,.04,.04,.07,.09,.11,.13,.07,.08,.15,.16,.23,.23,.15,.14,.32,.27,.49,.39,.34,.22,.71,.38,1.1,.48,.41,.1,.84,.13,1.26,.12,.04,0,.07,0,.11,0,1.81-.1,3.58,.16,5.32,.71,1.02,.32,2.08,.46,3.18,.34,1.74-.19,3.11-.92,4-2.51,.25,.43,.15,.82,.1,1.23Z"/>
    <path class="cls-1" d="M54.16,6.71c.26,.07,.49,.04,.74,.04,.31,.01,.62,.03,.93,.04,.93,.04,1.86,.04,2.79,.17,.76,.11,1.52,.27,2.26,.46,.06,.02,.12,.03,.18,.05,.79,.21,1.61,.26,2.42,.15,.41-.06,.81-.16,1.2-.3,.19-.07,.41-.14,.59-.24,.18-.1,.39-.24,.55-.38,.06-.05,.13-.11,.15-.19,.02-.08,0-.16-.04-.23s-.11-.12-.17-.17c-.27-.19-.58-.31-.9-.36-.26-.04-.38-.21-.49-.43-.46-.92-1.58-1.44-2.7-.53-.26,.21-.51,.36-.9,.22-.43-.67-1.03-1.17-1.89-1.16-.83,0-1.48,.46-1.96,1.08-.01,.01-.19-.03-.22-.03-.07,0-.14-.02-.21-.03-.13-.01-.26-.02-.39-.03-.22,0-.44,0-.66,.05-.4,.09-.74,.31-1.01,.61-.12,.14-.23,.28-.33,.44-.08,.12-.16,.23-.2,.37-.02,.06-.03,.13-.02,.19,.02,.12,.18,.17,.28,.2Zm10.92-.26c-.52,.39-1.28,.64-1.93,.52-.01,0-.03,0-.04,0,.26-.34,.54-.57,.97-.66,.34-.07,.7-.02,1.01,.14Zm-1.1-.69c-.24,.13-.55,.07-.8,.3-.36-.36-.63-.69-1.05-.9,.87-.49,1.19-.38,1.84,.6Zm-1.26,.64c-.03,.27-.16,.4-.31,.59-.84,.06-1.64-.27-2.47-.42,.57-1.21,1.85-1.29,2.78-.16Zm-2.47-1.13c-.31,.36-.73,.66-.94,1.13-.43-.07-.82-.14-1.3-.22-.22-.3-.42-.57-.61-.84,.79-1.21,1.9-1.24,2.85-.07Zm-2.92,.84c-1,.08-1.82,.16-2.68,.07,.74-1.08,1.49-1.13,2.68-.07Z"/>
  </g>
  <g>
    <path class="cls-1" d="M87.06,.59c-4.44,0-7.89,3.69-7.91,7.89-.03,4.34,3.63,7.97,7.97,7.93,4.33-.04,7.88-3.63,7.87-7.94-.02-4.04-3.33-7.88-7.93-7.88Zm-3.16,14.51c-.17-.25-.08-.39,.04-.55,1.61,.66,3.44,.92,5.14,.37,.28-.08,.55-.18,.41-.65-1.74,.38-3.59,.57-5.22-.36,.75-1.27,1.49-2.52,2.22-3.77,.15-.26,.4-.53,.06-.85-.42-.04-.48,.35-.62,.59-.95,1.6-1.8,3.2-2.78,4.8-2-1.44-3.22-3.26-3.33-5.76,.51-.14,.55,.17,.57,.45,.18,1.69,1.09,3.4,2.51,4.35,.39-.18,.29-.41,.09-.6-1.14-1.05-1.97-2.55-2.02-4.11,.23-.26,.5-.17,.74-.17,1.2-.01,2.41,0,3.61,0,.3,0,.64,.06,.81-.34-.21-.41-.59-.31-.91-.31-1.83,0-3.55,0-5.4,0,.11-2.58,1.32-4.4,3.28-5.81,.17,.12,.27,.24,.25,.53-1.27,.83-2.24,2.01-2.67,3.56-.11,.39-.28,1.19-.02,1.3,.35,.14,.41-.45,.48-.74,.38-1.51,1.27-2.79,2.6-3.66,.91,1.47,1.69,3,2.61,4.47,.51-.3,.37-.58,.2-.86-.92-1.57-1.82-3.13-2.73-4.71-.04-.07-.03-.17,.03-.22,.34-.34,.79-.42,1.18-.52,1.66-.42,3.32-.42,4.92,.3,.34,.15,.34,.16,.27,.65-1.66-.7-3.51-.94-5.24-.36-.25,.07-.48,.2-.3,.64,1.74-.46,3.5-.59,5.2,.35-.73,1.23-1.46,2.45-2.17,3.67-.16,.28-.48,.56-.12,.94,.42,.05,.49-.34,.63-.58,.95-1.61,1.82-3.19,2.77-4.8,2.03,1.42,3.22,3.26,3.33,5.76-.5,.13-.55-.15-.57-.44-.13-1.6-.98-3.03-2.12-4.11-.13-.14-.3-.23-.54-.09-.17,.41,.21,.6,.42,.82,.98,1.08,1.67,2.39,1.63,3.89-2.13,.06-4.15-.15-6.24,.1-.12,.47,.14,.74,.3,1.03,.89,1.56,1.8,3.12,2.69,4.68,.17,.3,.4,.57,.47,1.02-2.17,1.06-4.33,.99-6.45,.1Zm7.06-.5c-.07-.1-.13-.2-.26-.38,1.65-1.2,2.66-2.72,3.02-4.63-.67-.55-.7,.55-.9,.94-.46,1.28-1.2,2.35-2.44,3.07-.91-1.56-1.81-3.1-2.75-4.72h6.55c.53,1.48-1.43,5.01-3.22,5.72Z"/>
    <path class="cls-1" d="M83.45,10c-.21-.18,.17-.5-.13-.52-.73-.05-.89,.44-.84,1,.04,.49,.43,.93,.89,.98,.32,.03,.87-.03,.78-.39-.03-.12-.2-.15-.4-.29,.36-.23,.83-.32,.62-.77-.24-.52-.63-.1-.91-.01Z"/>
    <path class="cls-1" d="M87.09,5.4c.36-.02,.42-.32,.37-.63-.01-.1,.02-.19,.1-.23,.14-.06,.31,.27,.45,.07,.48-.64-.93-1.59-1.6-.99-.36,.29-.52,.92-.22,1.04,.14,.06,.27-.19,.42-.12,.34,.15-.08,.88,.47,.86Z"/>
    <path class="cls-1" d="M90.75,7.53c1.14-.01,1.22-1.74,.09-1.85-1.21-.04-1.29,1.77-.09,1.85Zm.05-1.23c.36,.06,.31,.63-.05,.59-.38-.05-.33-.56,.05-.59Z"/>
    <path class="cls-1" d="M87.03,11.72c-1.2-.04-1.2,1.71-.07,1.8,1.23,0,1.34-1.72,.07-1.8Zm-.05,1.15c-.17-.02-.29-.11-.26-.3,.05-.36,.6-.35,.57,.04-.03,.18-.13,.27-.31,.25Z"/>
    <path class="cls-1" d="M83.3,5.35c-1.18,.09-1.22,1.69-.04,1.83,1.23,.03,1.25-1.79,.04-1.83Zm-.09,1.19c-.15-.05-.22-.23-.14-.38,.14-.26,.34-.17,.55-.01-.03,.32-.16,.47-.41,.39Z"/>
    <path class="cls-1" d="M88.58,3.73c.37,.08,.51-.49,.11-.53-.4-.08-.51,.48-.11,.53Z"/>
    <path class="cls-1" d="M83.7,4.59c.09-.1,.04-.24-.06-.32-.28-.22-.42-.05-.52,.22,.16,.26,.35,.34,.58,.1Z"/>
    <path class="cls-1" d="M85.37,3.43c-.02,.27,.38,.46,.58,.17,.03-.04,.09-.18,.05-.27-.1-.24-.6-.31-.63,.1Z"/>
    <path class="cls-1" d="M81.88,9.44c-.43-.03-.41,.58,0,.55,.33-.01,.34-.55,0-.55Z"/>
    <path class="cls-1" d="M89.09,7.71c.18,.03,.27-.09,.31-.25,.02-.35-.57-.41-.59-.05,0,.17,.11,.28,.27,.3Z"/>
    <path class="cls-1" d="M82.17,7.17c-.4-.02-.4,.56,0,.55,.39-.02,.41-.57,0-.55Z"/>
    <path class="cls-1" d="M87.15,6.51c.44-.23-.09-.77-.45-.34,.06,.32,.19,.45,.45,.34Z"/>
    <path class="cls-1" d="M86.72,10.88c.02,.32,.53,.38,.57,.03,.06-.39-.6-.42-.57-.03Z"/>
    <path class="cls-1" d="M84.84,9.45c-.39,.07-.22,.61,.15,.53,.33-.09,.23-.61-.15-.53Z"/>
    <path class="cls-1" d="M90.86,5c.22-.05,.25-.24,.11-.47-.15-.03-.32-.09-.46,.1-.04,.28,.08,.44,.36,.37Z"/>
    <path class="cls-1" d="M83.25,11.75c-.34,.06-.27,.59,.11,.54,.4-.04,.28-.59-.11-.54Z"/>
    <path class="cls-1" d="M92.63,7.49c.15-.04,.22-.22,.14-.37-.14-.26-.34-.16-.56-.02,.01,.35,.18,.46,.42,.39Z"/>
    <path class="cls-1" d="M84.62,7.14c0,.28,.14,.39,.4,.36,.19-.14,.22-.3,.07-.48-.19-.1-.35-.08-.48,.12Z"/>
    <path class="cls-1" d="M85.31,13.37c-.11,.1-.07,.23,.03,.32,.27,.23,.43,.08,.54-.19-.14-.27-.32-.37-.57-.13Z"/>
    <path class="cls-1" d="M88.19,13.39c-.07,.12-.02,.26,.1,.33,.27,.15,.4,0,.48-.32-.22-.2-.42-.27-.57-.01Z"/>
    <path class="cls-1" d="M90.97,9.54c-.19,.05-.02,.31-.18,.47-.28-.12-.67-.32-.84,.11-.19,.49,.3,.58,.6,.76-.11,.17-.51,.12-.42,.39,.16,.47,.74,.4,1.17,.15,.84-.42,.61-2.13-.33-1.87Z"/>
    <path class="cls-1" d="M92.43,9.46c-.23-.01-.34,.14-.34,.34,.04,.36,.5,.24,.55-.08-.03-.12-.07-.26-.21-.27Z"/>
    <path class="cls-1" d="M90.69,11.93c-.39-.09-.47,.46-.1,.54,.32,.03,.44-.49,.1-.54Z"/>
    <path class="cls-1" d="M89.03,9.28c-.34,.08-.28,.65,.1,.54,.32-.07,.24-.58-.1-.54Z"/>
  </g>
  <g>
    <path class="cls-1" d="M25.84,10.96c-.24-.41-.33-.79-.16-1.21,.2-.48-.07-.97-.08-1.45-.07-2.01,.77-3.54,2.23-4.78,3.02-2.57,7.97-2.43,10.85,.3,1.58,1.49,2.17,3.33,1.78,5.47-.03,.16-.06,.29,0,.45,.06,.14,.18,.35,.12,.44-.43,.73,.01,1.46,0,2.18-.03,1.72-1.03,2.86-2.75,2.97-.06,0-.13,0-.19,0-3.03,0-6.07,.01-9.1,0-1.5,0-2.63-.84-2.87-2.11-.14-.74-.2-1.49,.17-2.25Zm5.08,.63c-.25-.21-.48-.39-.48-.39-1.17,0-2.54-.03-3.76-.01,.67,.24,1.06,.67,1.12,1.21,0,.06,.04,.31,.09,.44,.14,.36,.63,.3,.8-.04,.09-.2,.11-.43,.19-.63,.26-.58,.8-.8,1.4-.6,.17,.06,.33,.19,.43,.34,.16,.24,.22,.58,.25,.7,.07,.28,.27,.46,.55,.45,.23,0,.4-.16,.44-.42,.02-.12,.03-.25,.07-.37,.19-.48,.63-.82,1.06-.81,.43,0,.87,.34,1.06,.82,.03,.09,.06,.18,.06,.27,.01,.3,.19,.49,.46,.5,.28,.01,.44-.2,.5-.48,.03-.15,.05-.31,.11-.45,.18-.42,.55-.63,.97-.65,.42-.02,.79,.2,1,.6,.07,.14,.12,.29,.15,.45,.04,.28,.15,.51,.45,.52,.35,.02,.48-.27,.53-.56,.07-.44,.28-.76,.7-.92,.16-.06,.39-.04,.39-.34h-7.02c-.32,.3-.59,.6-.92,.91-.2-.19-.4-.37-.61-.55Zm9.03-3.85c-.16-1.42-.74-2.55-1.72-3.47-1.24-1.17-2.74-1.8-4.42-1.93-2.53-.2-4.74,.55-6.42,2.53-.68,.8-1.08,1.74-1.13,2.86h13.69Zm-10.41,4.52c-.14,.16-.1,.39-.16,.56-.22,.61-.54,.85-1.1,.85-.54,0-.88-.28-1.08-.88-.04-.12-.03-.25-.08-.36-.08-.19-.23-.3-.45-.28-.25,.03-.41,.17-.42,.42,0,.19,0,.38,.06,.56,.25,.92,1.02,1.49,2.05,1.49,2.66,0,5.31,0,7.97,0,.6,0,1.2,.03,1.8-.01,.99-.07,1.87-1.06,1.8-1.98-.02-.25-.11-.43-.37-.48-.25-.05-.43,.06-.53,.29-.05,.11-.03,.25-.07,.37-.19,.58-.56,.86-1.1,.86-.54,0-.81-.21-1.04-.79-.09-.23-.09-.5-.3-.67-.16-.07-.32-.1-.46-.02-.25,.14-.24,.42-.32,.65-.2,.59-.56,.85-1.11,.83-.52-.02-.81-.24-1.02-.82-.08-.23-.08-.5-.32-.67-.27-.08-.51-.05-.62,.25-.06,.15-.08,.31-.13,.45-.2,.56-.49,.78-1.04,.79-.52,.01-.86-.23-1.07-.76-.06-.15-.06-.31-.12-.46-.13-.34-.49-.52-.78-.2Zm10.35-3.27c.08-.35-.07-.54-.35-.6-.18-.04-.38-.02-.57-.02-3.92,0-7.85,0-11.77,0-.19,0-.39-.02-.57,.03-.32,.08-.49,.28-.29,.67,.69,.22,1.42,.11,2.14,.09,.55,0,.95,.16,1.33,.56,.51,.54,1.01,1.12,1.73,1.62,.51-.54,1.02-1.06,1.5-1.61,.36-.41,.77-.58,1.33-.56,1.49,.03,2.97,.02,4.46,0,.34,0,.7,.07,1.06-.17Zm-6.73,1.63c2.05,0,4.07,0,6.09,0,.09,0,.19,0,.28-.02,.32-.1,.49-.28,.32-.63-.28-.21-.61-.15-.92-.15-1.45,0-2.91,.02-4.36-.01-.64-.02-1.09,.19-1.41,.81Zm-6.85-.71c-.16,.58,.14,.7,.54,.71,.92,.01,1.97,0,2.98,0-.39-.4-.7-.78-1.11-.79-.78-.02-1.58-.09-2.41,.08Z"/>
    <path class="cls-1" d="M33.56,7.09c-.05,.2-.16,.34-.38,.31-.16-.02-.28-.14-.27-.31,.01-.22,.16-.32,.37-.3,.17,.02,.26,.14,.28,.31Z"/>
    <path class="cls-1" d="M36.21,7.12c-.08,.18-.18,.33-.4,.27-.16-.04-.26-.16-.24-.33,.03-.22,.19-.31,.39-.27,.17,.03,.24,.17,.25,.33Z"/>
    <path class="cls-1" d="M35.01,5.88c-.26,0-.37-.11-.39-.27-.03-.22,.11-.35,.31-.37,.17-.02,.29,.1,.31,.27,.03,.22-.12,.31-.23,.37Z"/>
    <path class="cls-1" d="M35.92,4.47c-.19-.03-.35-.11-.35-.33,0-.17,.12-.29,.28-.3,.22-.02,.34,.13,.35,.33,.01,.17-.11,.27-.29,.31Z"/>
    <path class="cls-1" d="M37.59,5.33c-.01,.18-.13,.31-.27,.34-.21,.04-.35-.11-.39-.3-.03-.18,.13-.3,.27-.33,.21-.04,.34,.1,.39,.3Z"/>
    <path class="cls-1" d="M30.5,4.66c-.17-.01-.29-.1-.32-.27-.03-.21,.07-.35,.29-.37,.18-.02,.29,.09,.32,.26,.04,.22-.1,.33-.29,.38Z"/>
    <path class="cls-1" d="M33.24,2.67c.24,.03,.33,.18,.3,.38-.02,.17-.17,.26-.33,.24-.16-.02-.29-.1-.29-.28,0-.22,.12-.32,.32-.33Z"/>
    <path class="cls-1" d="M33.26,4.41c.21,.09,.34,.21,.28,.42-.05,.16-.19,.28-.34,.24-.17-.05-.34-.18-.26-.41,.05-.16,.18-.23,.33-.25Z"/>
    <path class="cls-1" d="M28.57,5.66c0-.18,.1-.29,.26-.33,.21-.04,.36,.06,.4,.27,.03,.17-.1,.29-.26,.32-.2,.03-.35-.05-.4-.26Z"/>
    <path class="cls-1" d="M31.74,5.93c-.21-.02-.34-.13-.34-.3,0-.17,.12-.29,.3-.3,.23,0,.36,.13,.34,.34-.01,.18-.17,.25-.3,.26Z"/>
    <path class="cls-1" d="M30.51,6.78c.15,.06,.29,.13,.28,.32-.02,.24-.17,.34-.38,.29-.16-.03-.26-.17-.23-.35,.03-.18,.16-.26,.34-.27Z"/>
  </g>
  <g>
    <path class="cls-1" d="M12.49,2.02C9.63,.07,6.59-.09,3.52,1.42,1.51,2.4,.2,3.99,.01,6.34c-.06,.79,.09,1.5,.6,2.12,.52,.65,1.17,1.15,1.89,1.55,.61,.34,1.29,.5,1.92,.78,.03,.11,.06,.2,.07,.3,.07,.98,.05,1.95-.13,2.92-.26,1.38,.28,2.19,1.56,2.45,1.17,.24,2.33,.17,3.46-.23,1.32-.47,1.79-1.25,1.57-2.63-.03-.19-.1-.37-.12-.55-.1-.81-.24-1.62,.15-2.43,.2-.08,.41-.16,.61-.24,.94-.34,1.75-.88,2.43-1.6,.59-.63,1.09-1.35,1.04-2.26-.1-1.92-.97-3.44-2.56-4.52Zm-3.13,13.39c-1.09,.46-2.24,.63-3.41,.29-.73-.21-1.02-.59-.87-1.32,.21-1.09,.23-2.18,.17-3.45,1.61,.38,3.11,.19,4.64-.02,.2,.57,.02,1.14,.13,1.68,.12,.56,.2,1.11,.2,1.68,0,.6-.4,.94-.86,1.13Zm4.64-7.87c-.59,.99-1.46,1.66-2.51,2.08-1.33,.53-2.73,.76-4.22,.79-1.21-.06-2.46-.24-3.65-.69-.54-.2-1.04-.47-1.49-.81-1.34-1-1.65-2.12-1.11-3.73,.65-1.91,2.1-3.02,3.89-3.58,2.52-.8,4.99-.56,7.21,1.05,1.34,.97,2.04,2.29,2.16,3.92,.03,.35-.1,.67-.28,.98Z"/>
    <path class="cls-1" d="M5.71,2.06c-1.24,.36-2.27,1.05-3.13,2-.07,.08-.12,.18-.12,.3,0,.1,.08,.21,.17,.26,.01,0,.02,.01,.03,.02,.02,0,.04,.02,.06,.02,.04,.01,.08,.02,.12,.03,.1,0,.2-.03,.27-.1,.8-.83,1.77-1.39,2.82-1.84,.22-.09,.34-.28,.22-.53-.12-.13-.28-.19-.43-.15Z"/>
    <path class="cls-1" d="M2.52,4.79s-.04-.03-.06-.03c-.07-.02-.14-.02-.21,0-.06,.02-.14,.04-.19,.08-.05,.03-.09,.07-.13,.12-.04,.04-.07,.08-.1,.13-.03,.05-.06,.09-.08,.14-.03,.05-.05,.1-.07,.15-.02,.05-.05,.1-.07,.16-.02,.05-.05,.1-.07,.15-.15,.3,.05,.45,.34,.54,0,0,.02-.02,.02-.02,0,0,.01-.01,.02-.02,.01-.01,.03-.02,.04-.04,.03-.02,.05-.05,.08-.07,.05-.05,.1-.1,.15-.16,.05-.05,.09-.11,.13-.17,.04-.06,.07-.12,.11-.18,.03-.06,.06-.13,.08-.19,.02-.07,.04-.13,.05-.2,.01-.07,.02-.13,.03-.2,0-.06,0-.12-.03-.17,0,0-.01-.02-.02-.02Z"/>
  </g>
  <g>
    <path class="cls-1" d="M105.44,0V17.01h14.08V0h-14.08Zm13.3,16.2c-.68,.18-11.09,.23-12.48,.07-.16-.71-.18-14.43-.03-15.48,.84-.15,11.64-.15,12.51,0v15.4Z"/>
    <path class="cls-1" d="M108.26,6.3c-.31,0-.63-.04-.87,.2-.17,1.29-.12,7.53,.09,8.25h10.1V6.5c-.31-.21-.6-.2-.88-.2-2.81,0-5.62,0-8.43,0Zm8.69,7.71h-8.97V7.15c.65-.19,7.78-.23,8.97-.05v6.92Z"/>
    <path class="cls-1" d="M107.76,3.49c-.15,.23-.4,.2-.42,.49,.12,.22,.25,.46,.4,.74h9.43c.17-.29,.36-.54,.42-.85-.12-.17-.29-.24-.58-.3-.12,.59-.61,.45-1.04,.45-2.27,0-4.54,0-6.81,0-.53,0-1.03,.02-1.4-.54Z"/>
    <path class="cls-1" d="M115.07,2.5c.36-.4-.35-1-.7-.55-.32,.42,.33,.95,.7,.55Z"/>
    <path class="cls-1" d="M110.56,2.45c.31-.42-.33-.93-.69-.53-.37,.41,.36,.98,.69,.53Z"/>
    <path class="cls-1" d="M111.47,2.56c.35,.22,1.01-.32,.5-.71-.41-.31-1.03,.37-.5,.71Z"/>
    <path class="cls-1" d="M113.5,1.89c-.37-.29-1.03,.24-.54,.66,.37,.32,.98-.31,.54-.66Z"/>
    <path class="cls-1" d="M110.43,8.79c-.07-.2-.22-.32-.43-.46-1.58,1.39-.58,1.79-.02,3.2,.06,.38-.29,.59-.43,.89,.21,.16,.38,.28,.52,.39,1.33-1.15,0-1.95-.22-2.94-.11-.52,.41-.76,.58-1.07Z"/>
    <path class="cls-1" d="M112.85,8.77c-.13-.24-.25-.38-.44-.43-2.32,1.84,.99,2.44-.47,4.08,.27,.14,.38,.36,.63,.34,1.18-1.12-.04-1.9-.3-2.89-.13-.52,.44-.77,.58-1.1Z"/>
    <path class="cls-1" d="M114.52,12.29c-.05,.06-.06,.11,.07,.24,0,.05,.27,.19,.37,.2,.8-.86,.73-1.49,.08-2.34-.58-.67-.23-.96,.23-1.61-.11-.22-.23-.39-.45-.46-2.19,1.94,.81,2.33-.29,3.97Z"/>
  </g>
</svg>