<?xml version="1.0" encoding="UTF-8"?>
<svg id="Layer_1" data-name="Layer 1" xmlns="http://www.w3.org/2000/svg" width=".97in" height=".24in" viewBox="0 0 69.77 17.58">
  <defs>
    <style>
      .cls-1 {
        fill: #7f1839;
      }
    </style>
  </defs>
  <path class="cls-1" d="M32.1,7.31c.58-.08,1.13-.13,1.6-.16,2.32-.1,4.47,.03,6.72,.6,.68,.17,1.31,.45,1.93,.77,1.02,.53,1.33,1.19,1.17,2.33-.16,1.17-.48,2.01-1.3,2.86-.57,.6-1.47,1.02-2.2,1.28-2.52,.88-7.7,.96-10.56-.3-1.78-.78-2.8-2.8-2.77-4.48,.01-.58,.27-1.03,.74-1.36,.39-.26,.8-.49,1.24-.75-.43-1.12-.95-2.09-2.22-2.5-.87-.28-1.68-.72-2.51-1.1-.2-.09-.41-.18-.59-.3-.46-.31-.67-.75-.59-1.3,.07-.48,.46-.79,1.08-.9,.57-.1,1.12-.07,1.66,.19,1.2,.56,2.4,1.12,3.63,1.62,.99,.4,1.68,1.08,2.17,2.01,.25,.47,.52,.98,.8,1.5Zm10.72,2.85c0-.56-.89-1.03-1.52-1.28-1.33-.53-2.72-.74-4.14-.88-2.54-.24-5.04-.07-7.49,.63-.64,.18-1.26,.42-1.79,.84-.56,.45-.56,.84,0,1.31,.55,.45,1.21,.68,1.87,.87,2.74,.82,5.54,.81,8.35,.52,1.12-.12,2.24-.37,3.29-.84,.58-.25,1.43-.68,1.43-1.18Zm-15.06,1.55c.47,1.59,1.61,2.25,2.91,2.63,2.47,.73,6.31,.79,8.78,.05,.74-.2,1.41-.55,2.01-1.03,.51-.41,1.07-1,1.14-1.74-2.99,1.77-11.06,2.04-14.84,.09ZM23.53,3.03c-.18,.48,.33,.67,.69,.82,.99,.41,1.97,.83,2.95,1.25,.75,.32,1.34,.8,1.68,1.57,.19,.42,.45,.81,.67,1.2,.63-.16,1.18-.29,1.79-.44-.31-.56-.6-1.07-.9-1.59-.27-.47-.64-.86-1.14-1.09-1.4-.64-2.79-1.31-4.21-1.89-.5-.21-1.29-.46-1.53,.17Z"/>
  <g>
    <path class="cls-1" d="M61.84,.88c-4.44,0-7.89,3.69-7.91,7.89-.03,4.34,3.63,7.97,7.97,7.93,4.33-.04,7.88-3.63,7.87-7.94-.02-4.04-3.33-7.88-7.93-7.88Zm-3.16,14.51c-.17-.25-.08-.39,.04-.55,1.61,.66,3.44,.92,5.14,.37,.28-.08,.55-.18,.41-.65-1.74,.38-3.59,.57-5.22-.36,.75-1.27,1.49-2.52,2.22-3.77,.15-.26,.4-.53,.06-.85-.42-.04-.48,.35-.62,.59-.95,1.6-1.8,3.2-2.78,4.8-2-1.44-3.22-3.26-3.33-5.76,.51-.14,.55,.17,.57,.45,.18,1.69,1.09,3.4,2.51,4.35,.39-.18,.29-.41,.09-.6-1.14-1.05-1.97-2.55-2.02-4.11,.23-.26,.5-.17,.74-.17,1.2-.01,2.41,0,3.61,0,.3,0,.64,.06,.81-.34-.21-.41-.59-.31-.91-.31-1.83,0-3.55,0-5.4,0,.11-2.58,1.32-4.4,3.28-5.81,.17,.12,.27,.24,.25,.53-1.27,.83-2.24,2.01-2.67,3.56-.11,.39-.28,1.19-.02,1.3,.35,.14,.41-.45,.48-.74,.38-1.51,1.27-2.79,2.6-3.66,.91,1.47,1.69,3,2.61,4.47,.51-.3,.37-.58,.2-.86-.92-1.57-1.82-3.13-2.73-4.71-.04-.07-.03-.17,.03-.22,.34-.34,.79-.42,1.18-.52,1.66-.42,3.32-.42,4.92,.3,.34,.15,.34,.16,.27,.65-1.66-.7-3.51-.94-5.24-.36-.25,.07-.48,.2-.3,.64,1.74-.46,3.5-.59,5.2,.35-.73,1.23-1.46,2.45-2.17,3.67-.16,.28-.48,.56-.12,.94,.42,.05,.49-.34,.63-.58,.95-1.61,1.82-3.19,2.77-4.8,2.03,1.42,3.22,3.26,3.33,5.76-.5,.13-.55-.15-.57-.44-.13-1.6-.98-3.03-2.12-4.11-.13-.14-.3-.23-.54-.09-.17,.41,.21,.6,.42,.82,.98,1.08,1.67,2.39,1.63,3.89-2.13,.06-4.15-.15-6.24,.1-.12,.47,.14,.74,.3,1.03,.89,1.56,1.8,3.12,2.69,4.68,.17,.3,.4,.57,.47,1.02-2.17,1.06-4.33,.99-6.45,.1Zm7.06-.5c-.07-.1-.13-.2-.26-.38,1.65-1.2,2.66-2.72,3.02-4.63-.67-.55-.7,.55-.9,.94-.46,1.28-1.2,2.35-2.44,3.07-.91-1.56-1.81-3.1-2.75-4.72h6.55c.53,1.48-1.43,5.01-3.22,5.72Z"/>
    <path class="cls-1" d="M58.23,10.28c-.21-.18,.17-.5-.13-.52-.73-.05-.89,.44-.84,1,.04,.49,.43,.93,.89,.98,.32,.03,.87-.03,.78-.39-.03-.12-.2-.15-.4-.29,.36-.23,.83-.32,.62-.77-.24-.52-.63-.1-.91-.01Z"/>
    <path class="cls-1" d="M61.87,5.69c.36-.02,.42-.32,.37-.63-.01-.1,.02-.19,.1-.23,.14-.06,.31,.27,.45,.07,.48-.64-.93-1.59-1.6-.99-.36,.29-.52,.92-.22,1.04,.14,.06,.27-.19,.42-.12,.34,.15-.08,.88,.47,.86Z"/>
    <path class="cls-1" d="M65.53,7.82c1.14-.01,1.22-1.74,.09-1.85-1.21-.04-1.29,1.77-.09,1.85Zm.05-1.23c.36,.06,.31,.63-.05,.59-.38-.05-.33-.56,.05-.59Z"/>
    <path class="cls-1" d="M61.81,12.01c-1.2-.04-1.2,1.71-.07,1.8,1.23,0,1.34-1.72,.07-1.8Zm-.05,1.15c-.17-.02-.29-.11-.26-.3,.05-.36,.6-.35,.57,.04-.03,.18-.13,.27-.31,.25Z"/>
    <path class="cls-1" d="M58.08,5.63c-1.18,.09-1.22,1.69-.04,1.83,1.23,.03,1.25-1.79,.04-1.83Zm-.09,1.19c-.15-.05-.22-.23-.14-.38,.14-.26,.34-.17,.55-.01-.03,.32-.16,.47-.41,.39Z"/>
    <path class="cls-1" d="M63.36,4.02c.37,.08,.51-.49,.11-.53-.4-.08-.51,.48-.11,.53Z"/>
    <path class="cls-1" d="M58.48,4.87c.09-.1,.04-.24-.06-.32-.28-.22-.42-.05-.52,.22,.16,.26,.35,.34,.58,.1Z"/>
    <path class="cls-1" d="M60.15,3.72c-.02,.27,.38,.46,.58,.17,.03-.04,.09-.18,.05-.27-.1-.24-.6-.31-.63,.1Z"/>
    <path class="cls-1" d="M56.66,9.73c-.43-.03-.41,.58,0,.55,.33-.01,.34-.55,0-.55Z"/>
    <path class="cls-1" d="M63.87,8c.18,.03,.27-.09,.31-.25,.02-.35-.57-.41-.59-.05,0,.17,.11,.28,.27,.3Z"/>
    <path class="cls-1" d="M56.95,7.46c-.4-.02-.4,.56,0,.55,.39-.02,.41-.57,0-.55Z"/>
    <path class="cls-1" d="M61.93,6.8c.44-.23-.09-.77-.45-.34,.06,.32,.19,.45,.45,.34Z"/>
    <path class="cls-1" d="M61.5,11.16c.02,.32,.53,.38,.57,.03,.06-.39-.6-.42-.57-.03Z"/>
    <path class="cls-1" d="M59.62,9.73c-.39,.07-.22,.61,.15,.53,.33-.09,.23-.61-.15-.53Z"/>
    <path class="cls-1" d="M65.64,5.29c.22-.05,.25-.24,.11-.47-.15-.03-.32-.09-.46,.1-.04,.28,.08,.44,.36,.37Z"/>
    <path class="cls-1" d="M58.03,12.04c-.34,.06-.27,.59,.11,.54,.4-.04,.28-.59-.11-.54Z"/>
    <path class="cls-1" d="M67.41,7.78c.15-.04,.22-.22,.14-.37-.14-.26-.34-.16-.56-.02,.01,.35,.18,.46,.42,.39Z"/>
    <path class="cls-1" d="M59.4,7.43c0,.28,.14,.39,.4,.36,.19-.14,.22-.3,.07-.48-.19-.1-.35-.08-.48,.12Z"/>
    <path class="cls-1" d="M60.09,13.66c-.11,.1-.07,.23,.03,.32,.27,.23,.43,.08,.54-.19-.14-.27-.32-.37-.57-.13Z"/>
    <path class="cls-1" d="M62.97,13.68c-.07,.12-.02,.26,.1,.33,.27,.15,.4,0,.48-.32-.22-.2-.42-.27-.57-.01Z"/>
    <path class="cls-1" d="M65.75,9.83c-.19,.05-.02,.31-.18,.47-.28-.12-.67-.32-.84,.11-.19,.49,.3,.58,.6,.76-.11,.17-.51,.12-.42,.39,.16,.47,.74,.4,1.17,.15,.84-.42,.61-2.13-.33-1.87Z"/>
    <path class="cls-1" d="M67.21,9.75c-.23-.01-.34,.14-.34,.34,.04,.36,.5,.24,.55-.08-.03-.12-.07-.26-.21-.27Z"/>
    <path class="cls-1" d="M65.47,12.22c-.39-.09-.47,.46-.1,.54,.32,.03,.44-.49,.1-.54Z"/>
    <path class="cls-1" d="M63.81,9.57c-.34,.08-.28,.65,.1,.54,.32-.07,.24-.58-.1-.54Z"/>
  </g>
  <g>
    <path class="cls-1" d="M12,1.8c-.57-1.05-.95-1.16-2.22-.66-1.55-.89-1.87-.98-3.63-.83-.39,.03-.63-.1-.76-.31-.78,.05-.33,.98-1.04,1,1.34,2.33,2.75,4.5,4.06,6.87H.47c.3,.63-.69,.77-.43,1.35,.17,.22,.47,.05,.64,.3,.32,1.21,1.17,2.08,2.27,2.75-.35,.81-.68,1.58-1,2.32-1.17,.16-1.73,.56-1.82,1.28-.1,.72,.25,1.36,.88,1.61,.71,.28,1.36-.03,2.1-1.01,1.45,0,2.89,0,4.28,0,.32,.23,.25,.62,.49,.83,.26,0,.45-.08,.53-.3-.5-1.57-1-3.12-1.49-4.65,.12-.13,.17-.22,.24-.26,1.24-.74,1.98-1.83,2.22-3.24,.05-.3,.18-.52,.41-.71,1.39-1.15,1.79-2.67,1.59-4.38,1.01-.77,1.1-1.07,.61-1.96ZM2.04,16.73c-.31,.23-.65,.25-.95,0-.28-.24-.41-.54-.24-.92,.19-.41,.39-.46,1.26-.29,.26,.67,.24,.98-.08,1.21Zm5.27-.97H3.08c-.16-.23-.33-.49-.53-.78,.35-.8,.7-1.59,1.06-2.43,.91,.16,1.78,.16,2.67,0,.35,1.1,.67,2.11,1.03,3.22Zm-2.38-3.76c-1.87-.09-3.43-1.2-3.69-3.32,1.03-.13,6.69-.11,7.41,.02-.26,1.97-1.81,3.4-3.72,3.31Zm4.25-4.35c-1.28-2.11-2.56-4.23-3.85-6.34,1.72-.96,3.95-.17,4.92,1.49,1.02,1.74,.32,4.03-1.08,4.86Zm2.02-4.64c-.3-.47-.55-.88-.81-1.28,.41-.3,.69-.18,.88,.17,.18,.33,.51,.68-.08,1.11Z"/>
    <path class="cls-1" d="M2.03,6.51c.15,.21,.28,.33,.51,.34,.59-.7,.69-1.46,.13-2.23-.44-.61-.4-1.16,.1-1.69,.03-.03,.02-.11,.03-.17-.12-.19-.29-.32-.49-.43-.14,.21-.27,.43-.41,.63-.38,.55-.42,1.15-.04,1.68,.45,.63,.55,1.24,.17,1.87Z"/>
    <path class="cls-1" d="M4.17,5.88c-.04,.28,.09,.41,.29,.52,.05,.03,.11,.04,.19,.07,.36-.43,.34-.91,.15-1.41-.09-.23-.25-.46-.14-.72,.19-.44-.11-.53-.36-.65-.98,.72-.02,1.47-.14,2.18Z"/>
  </g>
</svg>